<svg width="111" height="40" viewBox="0 0 111 40" fill="none" xmlns="http://www.w3.org/2000/svg">
<rect x="0.205078" width="109.911" height="40" rx="6" fill="#090909"/>
<path d="M25.3987 20.6064C25.4204 18.9164 26.3245 17.3173 27.7587 16.4321C26.8539 15.1349 25.3384 14.3124 23.7617 14.2629C22.0801 14.0857 20.4498 15.2731 19.5929 15.2731C18.7193 15.2731 17.3999 14.2805 15.9792 14.3099C14.1272 14.3699 12.4008 15.4269 11.4998 17.0523C9.56301 20.4187 11.0077 25.366 12.863 28.0871C13.7912 29.4196 14.876 30.9079 16.2955 30.8551C17.6846 30.7973 18.2034 29.9659 19.8801 29.9659C21.5412 29.9659 22.028 30.8551 23.4762 30.8216C24.9668 30.7973 25.9059 29.4832 26.8015 28.1382C27.4685 27.1888 27.9817 26.1395 28.3221 25.0291C26.5705 24.2854 25.4007 22.5157 25.3987 20.6064Z" fill="white"/>
<path d="M22.6631 12.4734C23.4758 11.494 23.8762 10.2351 23.7792 8.96411C22.5376 9.09503 21.3907 9.69076 20.567 10.6326C19.7616 11.5528 19.3424 12.7896 19.4217 14.012C20.6637 14.0248 21.8848 13.4452 22.6631 12.4734Z" fill="white"/>
<path d="M74.942 18.8612V20.9091H73.6633V22.2521H74.942V26.8154C74.942 28.3735 75.6441 28.9968 77.4106 28.9968C77.721 28.9968 78.0166 28.9597 78.2753 28.9152V27.587C78.0536 27.6093 77.9132 27.6241 77.6693 27.6241C76.8784 27.6241 76.531 27.2531 76.531 26.4073V22.2521H78.2753V20.9091H76.531V18.8612H74.942Z" fill="white"/>
<path d="M82.7753 29.1081C85.1257 29.1081 86.5669 27.5277 86.5669 24.9084C86.5669 22.304 85.1183 20.7162 82.7753 20.7162C80.4249 20.7162 78.9763 22.304 78.9763 24.9084C78.9763 27.5277 80.4176 29.1081 82.7753 29.1081ZM82.7753 27.6909C81.3932 27.6909 80.6171 26.6744 80.6171 24.9084C80.6171 23.1573 81.3932 22.1334 82.7753 22.1334C84.15 22.1334 84.9335 23.1573 84.9335 24.9084C84.9335 26.667 84.15 27.6909 82.7753 27.6909Z" fill="white"/>
<path d="M87.8001 28.9523H89.3891V24.1813C89.3891 23.046 90.2391 22.2818 91.4439 22.2818C91.7247 22.2818 92.1977 22.3337 92.3308 22.3782V20.8052C92.1608 20.7607 91.8577 20.7384 91.6212 20.7384C90.5717 20.7384 89.6774 21.3172 89.4483 22.1111H89.33V20.872H87.8001V28.9523Z" fill="white"/>
<path d="M96.2764 22.074C97.4516 22.074 98.2203 22.8976 98.2572 24.1664H94.1922C94.2808 22.9051 95.1012 22.074 96.2764 22.074ZM98.2498 26.7708C97.9542 27.4015 97.2964 27.7503 96.3356 27.7503C95.0643 27.7503 94.2439 26.8525 94.1922 25.4353V25.3462H99.8759V24.7897C99.8759 22.2521 98.5233 20.7162 96.2838 20.7162C94.0148 20.7162 92.5735 22.356 92.5735 24.9381C92.5735 27.5203 93.9852 29.1081 96.2912 29.1081C98.1316 29.1081 99.4176 28.2177 99.7798 26.7708H98.2498Z" fill="white"/>
<path d="M64.521 25.9684C64.6436 27.9525 66.2906 29.2215 68.742 29.2215C71.3619 29.2215 73.0013 27.891 73.0013 25.7684C73.0013 24.0996 72.0667 23.1767 69.7992 22.6461L68.5811 22.3461C67.1409 22.0077 66.5587 21.554 66.5587 20.7619C66.5587 19.7621 67.4627 19.1084 68.8186 19.1084C70.1056 19.1084 70.9942 19.7467 71.1551 20.7696H72.8251C72.7255 18.9008 71.0862 17.5857 68.8416 17.5857C66.4285 17.5857 64.8198 18.9008 64.8198 20.8772C64.8198 22.5076 65.7314 23.4766 67.7308 23.9458L69.1557 24.2918C70.6189 24.6379 71.2624 25.1455 71.2624 25.9914C71.2624 26.9758 70.2511 27.6911 68.8722 27.6911C67.3937 27.6911 66.3672 27.022 66.2217 25.9684H64.521Z" fill="white"/>
<path d="M48.0597 20.7384C46.9659 20.7384 46.0198 21.2875 45.532 22.2076H45.4137V20.872H43.8838V31.6383H45.4729V27.728H45.5985C46.0198 28.5813 46.9289 29.0859 48.0745 29.0859C50.1071 29.0859 51.4005 27.4757 51.4005 24.9084C51.4005 22.3411 50.1071 20.7384 48.0597 20.7384ZM47.6089 27.6538C46.2785 27.6538 45.4433 26.6002 45.4433 24.9159C45.4433 23.2241 46.2785 22.1705 47.6163 22.1705C48.9615 22.1705 49.7671 23.2019 49.7671 24.9084C49.7671 26.6224 48.9615 27.6538 47.6089 27.6538Z" fill="white"/>
<path d="M56.961 20.7384C55.8671 20.7384 54.921 21.2875 54.4332 22.2076H54.315V20.872H52.785V31.6383H54.3741V27.728H54.4997C54.921 28.5813 55.8301 29.0859 56.9757 29.0859C59.0083 29.0859 60.3017 27.4757 60.3017 24.9084C60.3017 22.3411 59.0083 20.7384 56.961 20.7384ZM56.5101 27.6538C55.1797 27.6538 54.3445 26.6002 54.3445 24.9159C54.3445 23.2241 55.1797 22.1705 56.5175 22.1705C57.8627 22.1705 58.6683 23.2019 58.6683 24.9084C58.6683 26.6224 57.8627 27.6538 56.5101 27.6538Z" fill="white"/>
<path d="M41.0327 28.9523H42.8559L38.8647 17.8549H37.0185L33.0273 28.9523H34.7893L35.8082 26.0068H40.0215L41.0327 28.9523ZM37.8535 19.8698H37.9838L39.5848 24.561H36.2448L37.8535 19.8698Z" fill="white"/>
<path d="M32.9834 10.0271V14.4136H34.561C35.8631 14.4136 36.6171 13.6081 36.6171 12.2067C36.6171 10.8266 35.857 10.0271 34.561 10.0271H32.9834ZM33.6617 10.6472H34.4853C35.3907 10.6472 35.9267 11.2248 35.9267 12.2158C35.9267 13.222 35.3998 13.7935 34.4853 13.7935H33.6617V10.6472Z" fill="white"/>
<path d="M38.9263 14.4775C39.8892 14.4775 40.4796 13.83 40.4796 12.7569C40.4796 11.6899 39.8861 11.0394 38.9263 11.0394C37.9633 11.0394 37.3698 11.6899 37.3698 12.7569C37.3698 13.83 37.9603 14.4775 38.9263 14.4775ZM38.9263 13.8969C38.36 13.8969 38.0421 13.4804 38.0421 12.7569C38.0421 12.0395 38.36 11.62 38.9263 11.62C39.4895 11.62 39.8104 12.0395 39.8104 12.7569C39.8104 13.4774 39.4895 13.8969 38.9263 13.8969Z" fill="white"/>
<path d="M45.508 11.1032H44.857L44.2695 13.6294H44.2181L43.5398 11.1032H42.916L42.2377 13.6294H42.1893L41.5988 11.1032H40.9387L41.8471 14.4136H42.5163L43.1946 11.9757H43.2461L43.9274 14.4136H44.6026L45.508 11.1032Z" fill="white"/>
<path d="M46.2578 14.4136H46.9088V12.4772C46.9088 11.9605 47.2146 11.6382 47.6961 11.6382C48.1775 11.6382 48.4077 11.9027 48.4077 12.4347V14.4136H49.0587V12.2705C49.0587 11.4832 48.653 11.0394 47.9171 11.0394C47.4205 11.0394 47.0935 11.2613 46.933 11.6291H46.8846V11.1032H46.2578V14.4136Z" fill="white"/>
<path d="M50.084 14.4136H50.735V9.81128H50.084V14.4136Z" fill="white"/>
<path d="M53.1835 14.4775C54.1464 14.4775 54.7369 13.83 54.7369 12.7569C54.7369 11.6899 54.1434 11.0394 53.1835 11.0394C52.2206 11.0394 51.6271 11.6899 51.6271 12.7569C51.6271 13.83 52.2176 14.4775 53.1835 14.4775ZM53.1835 13.8969C52.6173 13.8969 52.2993 13.4804 52.2993 12.7569C52.2993 12.0395 52.6173 11.62 53.1835 11.62C53.7467 11.62 54.0677 12.0395 54.0677 12.7569C54.0677 13.4774 53.7467 13.8969 53.1835 13.8969Z" fill="white"/>
<path d="M56.6767 13.9181C56.3224 13.9181 56.065 13.7449 56.065 13.447C56.065 13.1551 56.2709 13.0001 56.7251 12.9697L57.5306 12.918V13.1947C57.5306 13.605 57.1672 13.9181 56.6767 13.9181ZM56.5101 14.4684C56.9431 14.4684 57.3035 14.2799 57.5003 13.9485H57.5518V14.4136H58.1786V12.152C58.1786 11.4528 57.7123 11.0394 56.8856 11.0394C56.1377 11.0394 55.6048 11.4042 55.5381 11.9726H56.168C56.2406 11.7386 56.492 11.6048 56.8553 11.6048C57.3005 11.6048 57.5306 11.8024 57.5306 12.152V12.4377L56.6373 12.4894C55.8531 12.538 55.411 12.8815 55.411 13.4774C55.411 14.0823 55.8742 14.4684 56.5101 14.4684Z" fill="white"/>
<path d="M60.3879 14.4684C60.8421 14.4684 61.2266 14.2525 61.4235 13.8908H61.4749V14.4136H62.0987V9.81128H61.4477V11.6291H61.3992C61.2206 11.2643 60.839 11.0485 60.3879 11.0485C59.5551 11.0485 59.0192 11.7112 59.0192 12.7569C59.0192 13.8057 59.5491 14.4684 60.3879 14.4684ZM60.5726 11.6352C61.1176 11.6352 61.4598 12.0699 61.4598 12.76C61.4598 13.453 61.1206 13.8817 60.5726 13.8817C60.0215 13.8817 59.6914 13.4591 59.6914 12.7569C59.6914 12.0608 60.0245 11.6352 60.5726 11.6352Z" fill="white"/>
<path d="M66.3204 14.4775C67.2833 14.4775 67.8738 13.83 67.8738 12.7569C67.8738 11.6899 67.2803 11.0394 66.3204 11.0394C65.3575 11.0394 64.764 11.6899 64.764 12.7569C64.764 13.83 65.3545 14.4775 66.3204 14.4775ZM66.3204 13.8969C65.7542 13.8969 65.4362 13.4804 65.4362 12.7569C65.4362 12.0395 65.7542 11.62 66.3204 11.62C66.8836 11.62 67.2046 12.0395 67.2046 12.7569C67.2046 13.4774 66.8836 13.8969 66.3204 13.8969Z" fill="white"/>
<path d="M68.7356 14.4136H69.3866V12.4772C69.3866 11.9605 69.6925 11.6382 70.1739 11.6382C70.6554 11.6382 70.8855 11.9027 70.8855 12.4347V14.4136H71.5365V12.2705C71.5365 11.4832 71.1308 11.0394 70.395 11.0394C69.8984 11.0394 69.5713 11.2613 69.4108 11.6291H69.3624V11.1032H68.7356V14.4136Z" fill="white"/>
<path d="M74.5349 10.2794V11.1184H74.0111V11.6686H74.5349V13.5382C74.5349 14.1765 74.8226 14.4319 75.5463 14.4319C75.6735 14.4319 75.7946 14.4167 75.9006 14.3984V13.8543C75.8097 13.8634 75.7522 13.8695 75.6523 13.8695C75.3283 13.8695 75.1859 13.7175 75.1859 13.371V11.6686H75.9006V11.1184H75.1859V10.2794H74.5349Z" fill="white"/>
<path d="M76.7745 14.4136H77.4255V12.4803C77.4255 11.9787 77.7222 11.6413 78.2552 11.6413C78.7154 11.6413 78.9607 11.9088 78.9607 12.4377V14.4136H79.6117V12.2766C79.6117 11.4893 79.1787 11.0424 78.4762 11.0424C77.9796 11.0424 77.6314 11.2643 77.4709 11.6352H77.4194V9.81128H76.7745V14.4136Z" fill="white"/>
<path d="M81.9603 11.5957C82.4418 11.5957 82.7567 11.9331 82.7718 12.4529H81.1064C81.1427 11.9361 81.4788 11.5957 81.9603 11.5957ZM82.7688 13.5199C82.6477 13.7783 82.3782 13.9212 81.9845 13.9212C81.4637 13.9212 81.1276 13.5534 81.1064 12.9727V12.9363H83.435V12.7083C83.435 11.6686 82.8808 11.0394 81.9633 11.0394C81.0337 11.0394 80.4432 11.7112 80.4432 12.7691C80.4432 13.8269 81.0216 14.4775 81.9664 14.4775C82.7203 14.4775 83.2472 14.1127 83.3956 13.5199H82.7688Z" fill="white"/>
</svg>
