<svg width="109" height="40" viewBox="0 0 109 40" fill="none" xmlns="http://www.w3.org/2000/svg">
<rect x="0.884277" width="107.321" height="40" rx="6" fill="#090909"/>
<g filter="url(#filter0_ii_289_7973)">
<path d="M11.5955 10.1294C11.3636 10.3758 11.2266 10.7582 11.2266 11.2534V28.9462C11.2266 29.4422 11.3636 29.8238 11.5955 30.0702L11.6545 30.1278L21.5272 20.2166V20.0998V19.983L11.6545 10.071L11.5955 10.1294Z" fill="url(#paint0_linear_289_7973)"/>
<path d="M24.8172 23.5206L21.5269 20.2158V20.099V19.9822L24.818 16.6782L24.8921 16.7206L28.7913 18.9446C29.9046 19.5798 29.9046 20.619 28.7913 21.255L24.8921 23.479L24.8172 23.5206Z" fill="url(#paint1_linear_289_7973)"/>
<g filter="url(#filter1_i_289_7973)">
<path d="M24.8921 23.4788L21.5261 20.0996L11.5952 30.07C11.9618 30.4604 12.5682 30.5084 13.2512 30.1196L24.8921 23.4788Z" fill="url(#paint2_linear_289_7973)"/>
</g>
<path d="M24.8921 16.7204L13.2512 10.0804C12.5682 9.69078 11.9618 9.73958 11.5952 10.13L21.5268 20.1004L24.8921 16.7204Z" fill="url(#paint3_linear_289_7973)"/>
</g>
<path d="M54.6668 21.0674C52.8966 21.0674 51.4538 22.4132 51.4538 24.2668C51.4538 26.109 52.8966 27.4661 54.6668 27.4661C56.4378 27.4661 57.8806 26.109 57.8806 24.2668C57.8798 22.4132 56.437 21.0674 54.6668 21.0674ZM54.6668 26.2068C53.6967 26.2068 52.8605 25.4072 52.8605 24.2675C52.8605 23.1158 53.6974 22.3282 54.6668 22.3282C55.637 22.3282 56.4732 23.1158 56.4732 24.2675C56.4732 25.4064 55.637 26.2068 54.6668 26.2068ZM47.6568 21.0674C45.8866 21.0674 44.4438 22.4132 44.4438 24.2668C44.4438 26.109 45.8866 27.4661 47.6568 27.4661C49.4277 27.4661 50.8705 26.109 50.8705 24.2668C50.8705 22.4132 49.4277 21.0674 47.6568 21.0674ZM47.6568 26.2068C46.6866 26.2068 45.8504 25.4072 45.8504 24.2675C45.8504 23.1158 46.6874 22.3282 47.6568 22.3282C48.6269 22.3282 49.4631 23.1158 49.4631 24.2675C49.4639 25.4064 48.6269 26.2068 47.6568 26.2068ZM39.3191 22.0499V23.4069H42.569C42.4719 24.1705 42.2175 24.7279 41.8291 25.1153C41.3565 25.5877 40.6166 26.109 39.3191 26.109C37.3186 26.109 35.7546 24.4969 35.7546 22.4975C35.7546 20.498 37.3186 18.8859 39.3191 18.8859C40.3983 18.8859 41.1864 19.3101 41.7681 19.8555L42.7263 18.8979C41.9134 18.1223 40.8349 17.5288 39.3191 17.5288C36.5787 17.5288 34.2749 19.7585 34.2749 22.4975C34.2749 25.2364 36.5787 27.4661 39.3191 27.4661C40.798 27.4661 41.9142 26.9809 42.7865 26.0722C43.6836 25.1755 43.9628 23.9147 43.9628 22.8969C43.9628 22.5825 43.9388 22.2913 43.8898 22.0491L39.3191 22.0499ZM73.4195 23.1038C73.1531 22.3891 72.3402 21.0674 70.6792 21.0674C69.0301 21.0674 67.6596 22.3643 67.6596 24.2668C67.6596 26.0601 69.0181 27.4661 70.8365 27.4661C72.3033 27.4661 73.1523 26.5694 73.5046 26.0481L72.4132 25.3207C72.0497 25.854 71.5522 26.2053 70.8365 26.2053C70.1215 26.2053 69.6119 25.8781 69.2845 25.2357L73.5648 23.4664L73.4195 23.1038ZM69.0542 24.1705C69.0181 22.9338 70.0123 22.3041 70.7281 22.3041C71.2858 22.3041 71.7584 22.5832 71.9165 22.9827L69.0542 24.1705ZM65.5748 27.2728H66.9807V17.8688H65.5748V27.2728ZM63.2702 21.7828H63.222C62.9067 21.4067 62.3001 21.0674 61.5369 21.0674C59.936 21.0674 58.4691 22.4734 58.4691 24.2795C58.4691 26.0729 59.936 27.4669 61.5369 27.4669C62.3008 27.4669 62.9067 27.1276 63.222 26.7402H63.2702V27.2006C63.2702 28.4245 62.6154 29.0789 61.561 29.0789C60.7 29.0789 60.1663 28.4613 59.9481 27.94L58.7235 28.4493C59.075 29.2971 60.0083 30.3397 61.561 30.3397C63.21 30.3397 64.6046 29.3701 64.6046 27.0065V21.2622H63.271L63.2702 21.7828ZM61.6581 26.2068C60.6879 26.2068 59.8758 25.3944 59.8758 24.2795C59.8758 23.1519 60.6879 22.3282 61.6581 22.3282C62.6154 22.3282 63.3673 23.1519 63.3673 24.2795C63.3673 25.3944 62.6154 26.2068 61.6581 26.2068ZM80.0081 17.8688H76.643V27.2728H78.0467V23.7101H80.0073C81.5638 23.7101 83.0946 22.584 83.0946 20.7898C83.0946 18.9957 81.5645 17.8688 80.0081 17.8688ZM80.0442 22.4012H78.0467V19.1778H80.0442C81.0941 19.1778 81.6902 20.0466 81.6902 20.7898C81.6902 21.518 81.0941 22.4012 80.0442 22.4012ZM88.7236 21.0509C87.7068 21.0509 86.6539 21.4985 86.2181 22.4907L87.4644 23.0105C87.7309 22.4907 88.2276 22.3207 88.7477 22.3207C89.474 22.3207 90.2123 22.7562 90.2244 23.5303V23.6273C89.97 23.4822 89.4251 23.2648 88.7597 23.2648C87.4163 23.2648 86.048 24.0027 86.048 25.3816C86.048 26.6401 87.1498 27.4503 88.3842 27.4503C89.328 27.4503 89.8488 27.0268 90.1754 26.5303H90.2236V27.2562H91.5799V23.6507C91.5806 21.9822 90.3327 21.0509 88.7236 21.0509ZM88.5535 26.2046C88.0944 26.2046 87.4524 25.9744 87.4524 25.4057C87.4524 24.6797 88.2517 24.4014 88.9419 24.4014C89.5583 24.4014 89.8495 24.5346 90.2244 24.7159C90.1152 25.5877 89.3648 26.2046 88.5535 26.2046ZM96.5187 21.2562L94.9088 25.3335H94.8606L93.1898 21.2562H91.6769L94.1825 26.9546L92.754 30.1246H94.2186L98.0804 21.2562H96.5187ZM83.8699 27.2728H85.2735V17.8688H83.8699V27.2728Z" fill="white"/>
<path d="M39.1439 12.3066C39.1439 12.9255 38.9574 13.4182 38.5837 13.786C38.1596 14.2233 37.6062 14.4419 36.9264 14.4419C36.2752 14.4419 35.721 14.2203 35.2661 13.7772C34.8104 13.3333 34.5825 12.7837 34.5825 12.1278C34.5825 11.4712 34.8104 10.9216 35.2661 10.4785C35.721 10.0346 36.2752 9.81297 36.9264 9.81297C37.2497 9.81297 37.5588 9.87501 37.8521 9.99836C38.1461 10.1225 38.3814 10.2872 38.5574 10.4932L38.1611 10.8832C37.8626 10.5324 37.4513 10.3573 36.9256 10.3573C36.4504 10.3573 36.0398 10.5213 35.6932 10.8493C35.3465 11.1772 35.1736 11.6034 35.1736 12.1271C35.1736 12.6508 35.3465 13.077 35.6932 13.4049C36.0398 13.7329 36.4504 13.8968 36.9256 13.8968C37.4294 13.8968 37.8498 13.7321 38.1859 13.4019C38.404 13.187 38.5303 12.8879 38.5642 12.5045H36.9256V11.972H39.1116C39.1341 12.0879 39.1439 12.1995 39.1439 12.3066Z" fill="white"/>
<path d="M42.6105 10.4556H40.5562V11.8605H42.409V12.393H40.5562V13.7979H42.6105V14.343H39.9764V9.91125H42.6105V10.4556Z" fill="white"/>
<path d="M45.0551 14.343H44.4753V10.4556H43.215V9.91125H46.3154V10.4556H45.0551V14.343Z" fill="white"/>
<path d="M48.5584 14.343V9.91125H49.1382V14.343H48.5584Z" fill="white"/>
<path d="M51.7093 14.343H51.1295V10.4556H49.8692V9.91125H52.9696V10.4556H51.7093V14.343Z" fill="white"/>
<path d="M58.8385 13.7706C58.3948 14.2182 57.8436 14.442 57.1842 14.442C56.5247 14.442 55.9735 14.2182 55.5306 13.7706C55.0869 13.323 54.8658 12.7749 54.8658 12.1271C54.8658 11.4793 55.0869 10.9313 55.5306 10.4837C55.9735 10.0361 56.5247 9.81152 57.1842 9.81152C57.8399 9.81152 58.3903 10.0368 58.8355 10.4866C59.2806 10.9365 59.5032 11.483 59.5032 12.1271C59.5032 12.7749 59.2814 13.323 58.8385 13.7706ZM55.9585 13.399C56.2923 13.7314 56.7006 13.8969 57.1842 13.8969C57.6677 13.8969 58.0767 13.7307 58.4099 13.399C58.7437 13.0666 58.9114 12.6427 58.9114 12.1271C58.9114 11.6116 58.7437 11.1876 58.4099 10.8552C58.0767 10.5228 57.6677 10.3574 57.1842 10.3574C56.7006 10.3574 56.2923 10.5236 55.9585 10.8552C55.6253 11.1876 55.4576 11.6116 55.4576 12.1271C55.4576 12.6427 55.6253 13.0666 55.9585 13.399Z" fill="white"/>
<path d="M60.3168 14.343V9.91125H61.0222L63.2149 13.3584H63.2397L63.2149 12.5046V9.91125H63.7947V14.343H63.1893L60.8951 10.7282H60.8703L60.8951 11.582V14.343H60.3168Z" fill="white"/>
<path d="M39.1439 12.3066C39.1439 12.9255 38.9574 13.4182 38.5837 13.786C38.1596 14.2233 37.6062 14.4419 36.9264 14.4419C36.2752 14.4419 35.721 14.2203 35.2661 13.7772C34.8104 13.3333 34.5825 12.7837 34.5825 12.1278C34.5825 11.4712 34.8104 10.9216 35.2661 10.4785C35.721 10.0346 36.2752 9.81297 36.9264 9.81297C37.2497 9.81297 37.5588 9.87501 37.8521 9.99836C38.1461 10.1225 38.3814 10.2872 38.5574 10.4932L38.1611 10.8832C37.8626 10.5324 37.4513 10.3573 36.9256 10.3573C36.4504 10.3573 36.0398 10.5213 35.6932 10.8493C35.3465 11.1772 35.1736 11.6034 35.1736 12.1271C35.1736 12.6508 35.3465 13.077 35.6932 13.4049C36.0398 13.7329 36.4504 13.8968 36.9256 13.8968C37.4294 13.8968 37.8498 13.7321 38.1859 13.4019C38.404 13.187 38.5303 12.8879 38.5642 12.5045H36.9256V11.972H39.1116C39.1341 12.0879 39.1439 12.1995 39.1439 12.3066Z" stroke="white" stroke-width="0.204511" stroke-miterlimit="10"/>
<path d="M42.6105 10.4556H40.5562V11.8605H42.409V12.393H40.5562V13.7979H42.6105V14.343H39.9764V9.91125H42.6105V10.4556Z" stroke="white" stroke-width="0.204511" stroke-miterlimit="10"/>
<path d="M45.0551 14.343H44.4753V10.4556H43.215V9.91125H46.3154V10.4556H45.0551V14.343Z" stroke="white" stroke-width="0.204511" stroke-miterlimit="10"/>
<path d="M48.5584 14.343V9.91125H49.1382V14.343H48.5584Z" stroke="white" stroke-width="0.204511" stroke-miterlimit="10"/>
<path d="M51.7093 14.343H51.1295V10.4556H49.8692V9.91125H52.9696V10.4556H51.7093V14.343Z" stroke="white" stroke-width="0.204511" stroke-miterlimit="10"/>
<path d="M58.8385 13.7706C58.3948 14.2182 57.8436 14.442 57.1842 14.442C56.5247 14.442 55.9735 14.2182 55.5306 13.7706C55.0869 13.323 54.8658 12.7749 54.8658 12.1271C54.8658 11.4793 55.0869 10.9313 55.5306 10.4837C55.9735 10.0361 56.5247 9.81152 57.1842 9.81152C57.8399 9.81152 58.3903 10.0368 58.8355 10.4866C59.2806 10.9365 59.5032 11.483 59.5032 12.1271C59.5032 12.7749 59.2814 13.323 58.8385 13.7706ZM55.9585 13.399C56.2923 13.7314 56.7006 13.8969 57.1842 13.8969C57.6677 13.8969 58.0767 13.7307 58.4099 13.399C58.7437 13.0666 58.9114 12.6427 58.9114 12.1271C58.9114 11.6116 58.7437 11.1876 58.4099 10.8552C58.0767 10.5228 57.6677 10.3574 57.1842 10.3574C56.7006 10.3574 56.2923 10.5236 55.9585 10.8552C55.6253 11.1876 55.4576 11.6116 55.4576 12.1271C55.4576 12.6427 55.6253 13.0666 55.9585 13.399Z" stroke="white" stroke-width="0.204511" stroke-miterlimit="10"/>
<path d="M60.3168 14.343V9.91125H61.0222L63.2149 13.3584H63.2397L63.2149 12.5046V9.91125H63.7947V14.343H63.1893L60.8951 10.7282H60.8703L60.8951 11.582V14.343H60.3168Z" stroke="white" stroke-width="0.204511" stroke-miterlimit="10"/>
<defs>
<filter id="filter0_ii_289_7973" x="11.2266" y="9.81152" width="18.3997" height="20.5767" filterUnits="userSpaceOnUse" color-interpolation-filters="sRGB">
<feFlood flood-opacity="0" result="BackgroundImageFix"/>
<feBlend mode="normal" in="SourceGraphic" in2="BackgroundImageFix" result="shape"/>
<feColorMatrix in="SourceAlpha" type="matrix" values="0 0 0 0 0 0 0 0 0 0 0 0 0 0 0 0 0 0 127 0" result="hardAlpha"/>
<feOffset dy="-0.795"/>
<feComposite in2="hardAlpha" operator="arithmetic" k2="-1" k3="1"/>
<feColorMatrix type="matrix" values="0 0 0 0 0 0 0 0 0 0 0 0 0 0 0 0 0 0 0.12 0"/>
<feBlend mode="normal" in2="shape" result="effect1_innerShadow_289_7973"/>
<feColorMatrix in="SourceAlpha" type="matrix" values="0 0 0 0 0 0 0 0 0 0 0 0 0 0 0 0 0 0 127 0" result="hardAlpha"/>
<feOffset dy="0.795"/>
<feComposite in2="hardAlpha" operator="arithmetic" k2="-1" k3="1"/>
<feColorMatrix type="matrix" values="0 0 0 0 1 0 0 0 0 1 0 0 0 0 1 0 0 0 0.25 0"/>
<feBlend mode="normal" in2="effect1_innerShadow_289_7973" result="effect2_innerShadow_289_7973"/>
</filter>
<filter id="filter1_i_289_7973" x="11.5952" y="20.0996" width="13.2969" height="10.2886" filterUnits="userSpaceOnUse" color-interpolation-filters="sRGB">
<feFlood flood-opacity="0" result="BackgroundImageFix"/>
<feBlend mode="normal" in="SourceGraphic" in2="BackgroundImageFix" result="shape"/>
<feColorMatrix in="SourceAlpha" type="matrix" values="0 0 0 0 0 0 0 0 0 0 0 0 0 0 0 0 0 0 127 0" result="hardAlpha"/>
<feOffset dy="-0.795"/>
<feComposite in2="hardAlpha" operator="arithmetic" k2="-1" k3="1"/>
<feColorMatrix type="matrix" values="0 0 0 0 0 0 0 0 0 0 0 0 0 0 0 0 0 0 0.08 0"/>
<feBlend mode="normal" in2="shape" result="effect1_innerShadow_289_7973"/>
</filter>
<linearGradient id="paint0_linear_289_7973" x1="20.652" y1="11.0662" x2="7.22652" y2="24.4395" gradientUnits="userSpaceOnUse">
<stop stop-color="#00A0FF"/>
<stop offset="0.0066" stop-color="#00A1FF"/>
<stop offset="0.2601" stop-color="#00BEFF"/>
<stop offset="0.5122" stop-color="#00D2FF"/>
<stop offset="0.7604" stop-color="#00DFFF"/>
<stop offset="1" stop-color="#00E3FF"/>
</linearGradient>
<linearGradient id="paint1_linear_289_7973" x1="30.2404" y1="20.099" x2="10.959" y2="20.099" gradientUnits="userSpaceOnUse">
<stop stop-color="#FFE000"/>
<stop offset="0.4087" stop-color="#FFBD00"/>
<stop offset="0.7754" stop-color="#FFA500"/>
<stop offset="1" stop-color="#FF9C00"/>
</linearGradient>
<linearGradient id="paint2_linear_289_7973" x1="23.0641" y1="21.9347" x2="4.85747" y2="40.0706" gradientUnits="userSpaceOnUse">
<stop stop-color="#FF3A44"/>
<stop offset="1" stop-color="#C31162"/>
</linearGradient>
<linearGradient id="paint3_linear_289_7973" x1="9.0941" y1="4.24022" x2="17.2239" y2="12.3384" gradientUnits="userSpaceOnUse">
<stop stop-color="#32A071"/>
<stop offset="0.0685" stop-color="#2DA771"/>
<stop offset="0.4762" stop-color="#15CF74"/>
<stop offset="0.8009" stop-color="#06E775"/>
<stop offset="1" stop-color="#00F076"/>
</linearGradient>
</defs>
</svg>
