<svg width="98" height="32" viewBox="0 0 98 32" fill="none" xmlns="http://www.w3.org/2000/svg">
<g clip-path="url(#clip0_626_3972)">
<path fill-rule="evenodd" clip-rule="evenodd" d="M93.6022 0.00641204C93.9767 -0.0154086 94.3457 0.105895 94.6363 0.346376C94.9269 0.586857 95.118 0.92904 95.1719 1.30538C95.2215 1.69306 95.1353 2.08611 94.9284 2.41599C94.6866 2.75707 94.3237 2.98987 93.9161 3.06547C93.7004 3.10147 93.4796 3.08921 93.269 3.02954C93.0585 2.96988 92.8633 2.86426 92.6973 2.72008C92.5313 2.5759 92.3984 2.39665 92.3079 2.19491C92.2174 1.99316 92.1715 1.77379 92.1735 1.55218C92.1658 1.35524 92.1968 1.15871 92.2647 0.974013C92.3325 0.789318 92.436 0.620141 92.5689 0.476315C92.7018 0.332488 92.8616 0.216879 93.039 0.13621C93.2164 0.0555412 93.4078 0.0114213 93.6022 0.00641204Z" fill="#E21F24"/>
<path fill-rule="evenodd" clip-rule="evenodd" d="M69.6986 17.7439C68.9875 17.7439 68.2315 17.7764 67.5652 17.7439C68.334 12.5481 69.09 7.28077 69.8396 2.0979H72.0499C71.2747 7.30025 70.4995 12.5416 69.6986 17.7439Z" fill="#E21F24"/>
<path fill-rule="evenodd" clip-rule="evenodd" d="M95.9408 3.67609C96.2777 3.63349 96.6188 3.70963 96.907 3.89174C97.1951 4.07385 97.4127 4.35085 97.5232 4.67629C97.5977 4.90874 97.6175 5.15564 97.5809 5.39722C97.5341 5.67442 97.4136 5.93343 97.2324 6.14636C97.0512 6.35929 96.8161 6.51807 96.5525 6.6056C96.2889 6.69312 96.0067 6.70608 95.7363 6.64308C95.466 6.58007 95.2177 6.44349 95.0182 6.24804C94.7601 5.95236 94.6177 5.5712 94.6177 5.17639C94.6177 4.78159 94.7601 4.40043 95.0182 4.10475C95.2656 3.85516 95.5927 3.70317 95.9408 3.67609Z" fill="#E21F24"/>
<path fill-rule="evenodd" clip-rule="evenodd" d="M49.9277 4.75425H54.0921V7.73538C54.3804 7.77435 54.8352 7.73538 55.1043 7.73538V10.9828H54.1049C54.06 13.1845 54.1049 15.4577 54.1049 17.6855C52.7467 17.6335 51.2283 17.6855 49.9021 17.6855C49.9021 15.4772 49.9021 13.2235 49.9021 11.0477C49.5661 11.0025 49.2258 11.0025 48.8898 11.0477C48.845 9.98908 48.8898 8.84599 48.8898 7.74837C49.2326 7.78735 49.5785 7.78735 49.9213 7.74837C49.9661 6.81311 49.9213 5.79992 49.9213 4.81271C49.8764 4.76075 49.9277 4.70879 49.9277 4.75425Z" fill="#14A1DC"/>
<path fill-rule="evenodd" clip-rule="evenodd" d="M92.3977 6.3584C92.6465 6.32132 92.9005 6.34565 93.1381 6.42932C93.3757 6.51299 93.5898 6.65354 93.7624 6.83902C93.9266 7.06637 94.0442 7.32475 94.1083 7.59891C94.1436 7.81822 94.1314 8.04269 94.0727 8.25676C94.0139 8.47083 93.9099 8.66939 93.7679 8.83867C93.6259 9.00795 93.4493 9.1439 93.2503 9.23712C93.0513 9.33033 92.8348 9.37857 92.6156 9.3785C92.3297 9.37034 92.0511 9.28472 91.8089 9.13053C91.5667 8.97634 91.3696 8.75921 91.2381 8.50169C91.1126 8.1936 91.077 7.85546 91.1356 7.52747C91.1915 7.21979 91.3451 6.93906 91.573 6.72803C91.8008 6.51699 92.0904 6.38719 92.3977 6.3584Z" fill="#E21F24"/>
<path fill-rule="evenodd" clip-rule="evenodd" d="M45.9361 6.65073C45.872 6.61826 45.3723 6.76764 45.2954 6.65073C45.2954 6.65073 45.5389 6.65073 45.6029 6.65073H45.9361Z" fill="white"/>
<path fill-rule="evenodd" clip-rule="evenodd" d="M87.881 8.3979C87.4773 8.91749 87.0289 9.43058 86.5996 9.93068C86.3244 9.54175 85.965 9.22183 85.5489 8.99543C84.9082 8.76162 84.447 9.39161 84.3188 9.91769C84.2719 10.1992 84.3237 10.4886 84.4653 10.7354C84.6069 10.9822 84.8294 11.1709 85.094 11.2686C85.3439 11.392 85.6258 11.431 85.8949 11.5609C86.1659 11.7117 86.4053 11.9147 86.5996 12.1584C86.9029 12.5939 87.1045 13.0936 87.1891 13.6197C87.2741 14.2268 87.2337 14.8451 87.0705 15.4354C86.9072 16.0257 86.6247 16.5752 86.2409 17.049C85.7111 17.5436 85.0533 17.8748 84.3445 18.0038C83.9704 18.0816 83.5846 18.0816 83.2105 18.0038C82.2572 17.6662 81.4011 17.0951 80.7183 16.3411C81.0913 15.8879 81.4869 15.4544 81.9035 15.0421C82.1726 15.2434 82.4225 15.4253 82.7043 15.6007C82.9861 15.7907 83.2951 15.9353 83.6205 16.0293C83.7881 16.0715 83.9629 16.0759 84.1324 16.0421C84.3019 16.0083 84.4619 15.9371 84.6013 15.8336C84.7407 15.7302 84.8559 15.5969 84.9388 15.4433C85.0218 15.2897 85.0704 15.1195 85.0812 14.9447C85.1077 14.7435 85.0873 14.5388 85.0216 14.3471C84.956 14.1554 84.847 13.9819 84.7032 13.8406C84.3581 13.5592 83.9681 13.3395 83.55 13.1911C83.1536 13.0181 82.8042 12.7507 82.5314 12.4117C82.1021 11.7757 81.9301 10.9968 82.0509 10.2359C82.1315 9.45678 82.4799 8.7312 83.0351 8.1862C83.5903 7.6412 84.3169 7.3115 85.0877 7.25482C85.6071 7.22913 86.1259 7.31803 86.6081 7.51538C87.0904 7.71274 87.5247 8.01384 87.881 8.3979Z" fill="#E21F24"/>
<path fill-rule="evenodd" clip-rule="evenodd" d="M59.749 16.6657C59.6867 16.8179 59.6562 16.9816 59.6593 17.1463C59.3518 19.0948 59.0635 21.0432 58.788 22.9592C57.9167 22.9592 57.0902 22.9592 56.2573 22.9137C57.0005 17.8997 57.7693 12.7623 58.5445 7.70936H61.0624C61.0624 7.86523 60.9791 7.9107 61.0047 8.09255C61.2541 8.01629 61.4981 7.92299 61.7351 7.81327C62.5305 7.55255 63.394 7.60828 64.1504 7.96915C64.6814 8.25791 65.1435 8.66107 65.5044 9.15029C65.8652 9.63951 66.1159 10.2029 66.239 10.8009C66.3035 11.0944 66.3506 11.3915 66.3799 11.6907C66.4292 12.0238 66.4463 12.3609 66.4312 12.6974C66.4188 12.7614 66.4017 12.8243 66.3799 12.8857C66.3724 13.0705 66.3553 13.2548 66.3287 13.4378C66.0857 14.7984 65.3808 16.0299 64.3362 16.919C63.9711 17.2232 63.549 17.4492 63.0953 17.5832C62.6415 17.7171 62.1657 17.7563 61.6966 17.6984C61.1563 17.5884 60.6439 17.3673 60.191 17.0489C60.0617 16.9012 59.913 16.7723 59.749 16.6657ZM60.7484 10.4112C60.1101 11.0874 59.7563 11.9888 59.7618 12.9247C59.7527 13.6595 60.0026 14.3735 60.4665 14.9381C60.6615 15.1682 60.9083 15.3473 61.1859 15.4604C61.4636 15.5734 61.764 15.617 62.0618 15.5876C63.2727 15.4707 64.2529 14.1847 64.3618 12.8143C64.4476 12.0867 64.2799 11.3515 63.8877 10.7359C63.7189 10.4343 63.4738 10.1837 63.1776 10.0102C62.8814 9.83662 62.5449 9.74637 62.2028 9.74873C61.653 9.77594 61.1336 10.0125 60.7484 10.4112Z" fill="#E21F24"/>
<path fill-rule="evenodd" clip-rule="evenodd" d="M75.202 7.70947C75.0098 8.9305 74.8753 10.3074 74.6959 11.6713C74.6574 11.8532 74.6062 12.035 74.587 12.2104C74.5229 12.6455 74.5037 13.0807 74.446 13.5093C74.4016 13.7227 74.3865 13.9413 74.4012 14.1588C74.4087 14.4593 74.5189 14.7479 74.7128 14.9753C74.9067 15.2027 75.1724 15.3548 75.4647 15.4058C75.8086 15.4809 76.1671 15.4441 76.4891 15.3007C76.8112 15.1572 77.0804 14.9145 77.2586 14.607C77.5725 13.8211 77.5725 12.6585 77.7967 11.7557C77.959 10.5261 78.1384 9.31802 78.3349 8.13163C78.3345 7.99785 78.3517 7.8646 78.3861 7.73545H80.4747C80.1992 9.6839 79.9366 11.8921 79.6611 13.8146C79.551 14.48 79.3346 15.1228 79.0204 15.7176C78.743 16.2362 78.3763 16.7003 77.9377 17.088C77.4719 17.4087 76.9465 17.6297 76.3937 17.7375C74.1897 18.0103 72.4407 16.9256 72.0883 14.8408C72.0243 14.3972 72.0243 13.9465 72.0883 13.5029C72.178 12.9703 72.2549 12.4312 72.3382 11.8856C72.383 11.5674 72.4215 11.2362 72.4663 10.9179C72.6457 9.87225 72.8059 8.85256 72.9532 7.80689C72.9532 7.76792 72.9532 7.75494 72.9853 7.74195L75.202 7.70947Z" fill="#E21F24"/>
<path fill-rule="evenodd" clip-rule="evenodd" d="M43.6747 7.73535C44.956 7.78082 46.2886 7.73535 47.5764 7.73535V17.7049C46.295 17.6724 44.924 17.6724 43.6619 17.7049V7.78731L43.6747 7.73535Z" fill="#14A1DC"/>
<path fill-rule="evenodd" clip-rule="evenodd" d="M47.6018 4.09816C47.6018 4.48136 47.6403 4.74765 47.6018 5.07239C47.5858 5.20371 47.5536 5.33246 47.5057 5.45558C47.428 5.71654 47.2948 5.95705 47.1155 6.16017C46.9362 6.36328 46.7151 6.52405 46.4678 6.63115C46.0909 6.74993 45.6928 6.78318 45.3018 6.72857C44.8971 6.68346 44.5184 6.5044 44.2243 6.2191C43.9301 5.9338 43.7369 5.55816 43.6745 5.15033C43.6456 4.78287 43.6456 4.41366 43.6745 4.04621C43.6745 4.04621 43.713 3.98775 43.7322 3.93579C43.7336 3.83409 43.7509 3.73324 43.7834 3.63703C43.7834 3.63703 43.8283 3.63703 43.8283 3.63703C43.8283 3.63703 43.8283 3.57208 43.8667 3.50714C44.0564 3.09457 44.3861 2.76492 44.7957 2.57838C44.9409 2.55077 45.0843 2.51389 45.2249 2.46797C45.4873 2.41595 45.7571 2.41595 46.0194 2.46797C46.4222 2.52809 46.7947 2.71981 47.0803 3.01402C47.3659 3.30823 47.549 3.68888 47.6018 4.09816ZM45.5965 6.65063C45.4963 6.65846 45.3956 6.65846 45.2954 6.65063C45.3723 6.74156 45.8784 6.59218 45.9361 6.65063H45.5965Z" fill="#14A1DC"/>
<path fill-rule="evenodd" clip-rule="evenodd" d="M4.06205 2.57847C4.06205 5.37125 4.01079 8.42381 4.10049 11.2101C4.32472 11.0932 4.43364 10.6256 4.64506 10.4047C5.13197 9.49546 5.68935 8.65763 6.18267 7.75485C7.67544 7.75485 9.18742 7.8133 10.6674 7.75485C10.6674 7.84577 10.5649 7.9367 10.5008 8.03412C9.4437 9.46298 8.37377 11.0023 7.33588 12.4636C8.46987 14.2172 9.62308 16.0228 10.7571 17.7049C9.29634 17.6724 7.47683 17.6724 6.0161 17.7049C5.71498 17.0554 5.37542 16.4059 5.08071 15.8084C4.78601 15.2109 4.48489 14.5095 4.13893 13.9314C4.05564 14.0353 4.07486 14.2172 4.06845 14.3471C4.06845 15.4122 4.06845 16.6722 4.06845 17.6919H0.0065918V2.59795C1.30716 2.55249 2.7807 2.59146 4.06205 2.57847Z" fill="#14A1DC"/>
<path fill-rule="evenodd" clip-rule="evenodd" d="M30.2206 13.295C28.2665 13.295 26.1972 13.295 24.2303 13.295C24.18 13.8888 24.3618 14.4789 24.7364 14.9381C24.8234 15.0147 24.9257 15.0713 25.0363 15.1038C25.1469 15.1363 25.2632 15.1441 25.3771 15.1265C25.7487 15.0615 25.9601 14.6524 26.0178 14.2757C27.3312 14.3991 28.715 14.4445 30.0412 14.5679C29.776 15.3544 29.3015 16.0512 28.6702 16.5813C28.478 16.7502 28.2473 16.8606 28.0295 17.0425C27.0389 17.5807 25.9123 17.8068 24.7941 17.6919C24.0944 17.5933 23.4112 17.3988 22.7632 17.1139C22.2283 16.8004 21.7371 16.416 21.3024 15.9708C20.8881 15.4758 20.5628 14.9108 20.3414 14.3016C20.2714 14.0029 20.2264 13.6988 20.2069 13.3924C20.1293 12.963 20.1293 12.5228 20.2069 12.0934C20.2069 11.8856 20.2581 11.7946 20.2389 11.6193C20.3286 11.4959 20.303 11.3335 20.3414 11.1971C20.3799 11.0607 20.4183 11.0932 20.4503 11.0283C20.4824 10.9633 20.4503 10.8854 20.4503 10.8139C20.4503 10.7425 20.5721 10.5801 20.6169 10.4697C20.725 10.2443 20.8492 10.0272 20.9885 9.82022C21.4269 9.21776 21.9928 8.72247 22.6447 8.37069C23.2965 8.01892 24.0179 7.81959 24.7557 7.78734C25.4018 7.74118 26.0511 7.80261 26.6777 7.96919C27.3338 8.13815 27.9464 8.44835 28.4737 8.87871C29.001 9.30906 29.4307 9.84947 29.7337 10.4632C29.8554 10.7295 29.9259 10.9958 30.0476 11.2686C30.051 11.4222 30.0883 11.573 30.1565 11.7102C30.2417 12.2338 30.2632 12.766 30.2206 13.295ZM25.0311 9.93063C24.493 10.0345 24.2239 10.6451 24.2303 11.366C24.7433 11.4176 25.2592 11.4328 25.7743 11.4115C25.9281 11.4115 26.1459 11.4764 26.21 11.2945C26.1395 10.4762 25.6974 9.80723 25.0247 9.93063H25.0311Z" fill="#14A1DC"/>
<path fill-rule="evenodd" clip-rule="evenodd" d="M37.7292 2.41616H41.6309C41.5989 7.48213 41.6309 12.639 41.6309 17.7245C40.3496 17.7245 38.9657 17.6595 37.742 17.7245C37.6908 17.2179 37.742 16.5814 37.6972 16.0748C37.5491 16.2251 37.4141 16.3881 37.2936 16.5619C36.8572 17.0654 36.2917 17.4363 35.6599 17.6335C35.2225 17.7232 34.7714 17.7193 34.3357 17.622C33.8999 17.5247 33.4889 17.3362 33.1292 17.0685C32.1214 16.1717 31.5004 14.9103 31.3994 13.5548C31.3447 12.8516 31.3576 12.1447 31.4378 11.444C31.5467 11.0478 31.6108 10.6321 31.7454 10.2684C31.9185 9.76137 32.1911 9.29511 32.5467 8.89774C32.9024 8.50037 33.3337 8.1801 33.8147 7.95625C34.5537 7.66063 35.3758 7.66063 36.1147 7.95625C36.7455 8.23815 37.2898 8.6868 37.6908 9.25521C37.7677 7.05347 37.6908 4.67636 37.7292 2.40967C37.7036 2.41616 37.7228 2.3642 37.7292 2.41616ZM36.3838 11.0283C35.5958 10.9504 35.0448 11.9636 35.1473 13.0287C35.1747 13.3101 35.2759 13.579 35.4404 13.8074C35.6049 14.0358 35.8266 14.2155 36.0827 14.3277C36.2177 14.358 36.3576 14.358 36.4927 14.3277C36.6277 14.2974 36.7545 14.2376 36.8643 14.1523C37.1457 13.8578 37.3389 13.4885 37.4217 13.0872C37.457 12.8155 37.457 12.5404 37.4217 12.2688C37.2231 11.6323 36.9796 11.0738 36.3838 11.0088V11.0283Z" fill="#14A1DC"/>
<path fill-rule="evenodd" clip-rule="evenodd" d="M19.2907 7.7354V11.8142C19.2458 11.8142 19.1561 11.7362 19.06 11.6713C18.8135 11.4643 18.5246 11.3156 18.2143 11.2361C17.9196 11.1703 17.6127 11.1876 17.327 11.2861C17.0413 11.3845 16.7876 11.5604 16.5934 11.7947C16.5358 11.9765 16.4589 12.1519 16.3948 12.3272V17.7115C15.1135 17.6595 13.6656 17.7115 12.4163 17.7115V7.76138H16.3948C16.3672 8.09296 16.3801 8.42673 16.4333 8.75509C16.4952 8.68826 16.549 8.61412 16.5934 8.53426C16.9514 8.13133 17.4093 7.83304 17.9196 7.67045C18.3717 7.54269 18.8523 7.56546 19.2907 7.7354Z" fill="#14A1DC"/>
<path fill-rule="evenodd" clip-rule="evenodd" d="M11.9805 29.376C11.9805 29.1227 11.9805 28.8694 12.0318 28.6161C12.0465 28.3852 12.0743 28.1553 12.1151 27.9277C12.1151 27.8497 12.2432 27.7718 12.3329 27.7198C12.4072 27.6851 12.4881 27.6673 12.5699 27.6679C12.6917 27.6679 12.7557 27.7263 12.7557 27.8822C12.7557 28.1355 12.7557 28.3888 12.7557 28.6356C12.7557 28.785 12.7557 28.811 12.9031 28.759C13.0504 28.707 13.0569 28.6811 13.1401 28.6551C13.4516 28.5402 13.7871 28.5088 14.114 28.5642C14.349 28.6148 14.5687 28.7217 14.7546 28.8759C14.8621 28.9611 14.94 29.0789 14.9769 29.212C15.0137 29.3452 15.0077 29.4869 14.9596 29.6163C14.902 29.7462 14.8571 29.8761 14.7995 30.006C14.7155 30.1634 14.5945 30.2973 14.4471 30.3957C14.3732 30.4501 14.2962 30.4999 14.2165 30.5451C14.064 30.6285 13.9055 30.7001 13.7424 30.7594C13.5824 30.8062 13.4198 30.843 13.2555 30.8698C13.185 30.8698 13.1081 30.8698 13.044 30.8698C12.9966 30.9033 12.9553 30.9451 12.9223 30.9932L12.6981 31.1686C12.669 31.1785 12.6375 31.1785 12.6084 31.1686C12.4811 31.1361 12.3568 31.0926 12.2368 31.0387C12.0894 30.9737 11.9485 30.8958 11.8075 30.8179L11.2438 30.4866L10.7248 30.1684C10.6223 30.1099 10.5262 30.032 10.4301 29.967L9.956 29.6618C9.88552 29.6228 9.83428 29.5709 9.7638 29.5319C9.69333 29.4929 9.62285 29.5319 9.62926 29.6098C9.62926 30.0645 9.62925 30.5256 9.6741 30.9867C9.6741 31.253 9.71254 31.5193 9.72536 31.7856C9.73817 32.0519 9.64207 32.0389 9.45628 32.0064C9.27048 31.9739 9.22563 31.948 9.17438 31.8181C9.13358 31.765 9.10116 31.7059 9.07828 31.6427C9.01421 31.4414 8.93733 31.24 8.88608 31.0322C8.84801 30.8721 8.8223 30.7092 8.8092 30.5451C8.8092 30.3048 8.76435 30.071 8.75794 29.8307C8.75154 29.5903 8.75794 29.4929 8.75794 29.3241C8.75794 29.2786 8.75795 29.2136 8.71951 29.2071C8.67805 29.1923 8.63283 29.1923 8.59137 29.2071L8.02758 29.5059C7.861 29.6033 7.70724 29.7202 7.53426 29.8112C7.31058 29.9705 7.06128 30.0892 6.79749 30.1619H6.75905C6.69607 30.2081 6.61764 30.2271 6.54084 30.215C6.46405 30.2028 6.39511 30.1604 6.34902 30.0969C6.33834 30.0758 6.33276 30.0525 6.33276 30.0287C6.33276 30.005 6.33834 29.9817 6.34902 29.9606C6.50278 29.8501 6.65654 29.7592 6.81031 29.6618L7.23314 29.3955C7.34846 29.3176 7.4702 29.2526 7.57911 29.1682C7.68802 29.0837 7.71365 29.0513 7.79053 29.0058L8.25182 28.6941C8.31589 28.6551 8.32229 28.6161 8.25182 28.5772L7.61115 28.2199C7.39332 28.09 7.17549 27.9666 6.97047 27.8302C6.76546 27.6939 6.7142 27.6484 6.59247 27.5575C6.56002 27.5196 6.54215 27.4712 6.54215 27.4211C6.54215 27.3709 6.56002 27.3225 6.59247 27.2847C6.68785 27.1918 6.79569 27.1131 6.91281 27.0509C6.95179 27.0319 6.99449 27.022 7.03774 27.022C7.08099 27.022 7.12369 27.0319 7.16267 27.0509C7.349 27.1752 7.54383 27.2859 7.74568 27.3821C7.96517 27.4899 8.17901 27.6091 8.38635 27.7393L8.64903 27.8887C8.6677 27.8989 8.68868 27.9039 8.70988 27.9034C8.73107 27.9028 8.75176 27.8967 8.76988 27.8855C8.78801 27.8744 8.80294 27.8586 8.81321 27.8398C8.82348 27.821 8.82872 27.7998 8.82842 27.7783C8.839 27.3364 8.91458 26.8986 9.05266 26.4793C9.09751 26.3105 9.15516 26.1351 9.20641 25.9597C9.23187 25.9005 9.26999 25.8478 9.31803 25.8054C9.36607 25.763 9.42282 25.732 9.48416 25.7146C9.54549 25.6972 9.60988 25.6938 9.67265 25.7048C9.73543 25.7157 9.79501 25.7407 9.84709 25.7779C9.90335 25.8395 9.93329 25.9213 9.93038 26.0052C9.93038 26.226 9.85349 26.4468 9.81505 26.6547C9.81505 26.7521 9.81505 26.856 9.81505 26.9469C9.81505 27.1418 9.78302 27.3431 9.77661 27.538C9.76728 27.583 9.76728 27.6294 9.77661 27.6744C9.82336 27.6811 9.87081 27.6811 9.91756 27.6744C10.0841 27.5705 10.2443 27.46 10.4109 27.3626C10.7248 27.1678 11.0516 26.9924 11.3527 26.7911C11.6538 26.5897 11.7819 26.4728 11.9933 26.3234C12.0857 26.2609 12.182 26.2045 12.2816 26.1546L12.5059 26.0637C12.5646 26.0292 12.6333 26.0168 12.7001 26.0287C12.7669 26.0406 12.8274 26.076 12.8711 26.1286C12.8733 26.1502 12.8733 26.172 12.8711 26.1936C12.8606 26.3669 12.7929 26.5316 12.6789 26.6612L12.288 26.9405C12.1811 27.0243 12.0699 27.1023 11.9549 27.1743C11.7499 27.3042 11.5449 27.4341 11.3142 27.5575C11.0836 27.6809 10.9106 27.7458 10.7184 27.8497C10.5262 27.9537 10.5454 27.9731 10.4621 28.0251L9.74458 28.4797C9.68051 28.5187 9.69973 28.6421 9.77661 28.6941C10.0137 28.8564 10.2507 29.0318 10.4942 29.1877L11.4039 29.7397C11.5641 29.8436 11.705 29.9735 11.8716 30.0645C12.0382 30.1554 12.2176 30.3892 12.4738 30.3957C12.7301 30.4022 12.8967 30.3957 13.1145 30.3957C13.3159 30.36 13.5078 30.2827 13.6783 30.1684C13.8449 30.1034 13.9025 29.9411 14.0371 29.8501C14.0371 29.8501 14.0691 29.7917 14.0819 29.7592C14.0947 29.7267 14.1396 29.5709 14.1716 29.4799C14.1857 29.4132 14.1791 29.3437 14.1527 29.2809C14.1263 29.2182 14.0815 29.1652 14.0243 29.1292C13.9308 29.0615 13.8188 29.0251 13.7039 29.0251C13.5891 29.0251 13.4771 29.0615 13.3836 29.1292C13.1548 29.2499 12.9672 29.4378 12.8454 29.6683C12.7797 29.7904 12.7322 29.9217 12.7045 30.058C12.6968 30.0795 12.6849 30.0993 12.6695 30.116C12.6541 30.1328 12.6355 30.1462 12.6148 30.1554C12.5221 30.1805 12.4251 30.1842 12.3309 30.1662C12.2366 30.1482 12.1475 30.109 12.0702 30.0515C12.0313 30.0151 12.0045 29.9675 11.9933 29.9151C11.9997 29.7397 11.9933 29.5644 11.9805 29.376Z" fill="#FFBC00"/>
<path d="M20.0724 28.2721C20.0813 28.4226 20.0566 28.5732 20 28.7127C19.9434 28.8522 19.8565 28.9769 19.7456 29.0774C19.4793 29.281 19.1494 29.3802 18.8167 29.3567H18.5219V30.5258H17.8364V27.2784H18.8679C19.1874 27.2582 19.5041 27.3499 19.7648 27.5382C19.8666 27.6297 19.9471 27.743 20.0003 27.87C20.0535 27.9969 20.0781 28.1343 20.0724 28.2721ZM18.5219 28.7917H18.7462C18.9141 28.8036 19.0811 28.7578 19.2203 28.6618C19.3113 28.5631 19.3619 28.4331 19.3619 28.2981C19.3619 28.163 19.3113 28.033 19.2203 27.9344C19.1008 27.8491 18.9561 27.8079 18.8103 27.8174H18.4963V28.7917H18.5219Z" fill="black"/>
<path d="M21.9301 30.5257H21.251V27.8239H20.3733V27.2458H22.8143V27.8239H21.9365L21.9301 30.5257Z" fill="black"/>
<path d="M23.1732 30.2074C23.1693 30.1556 23.1758 30.1036 23.1923 30.0545C23.2089 30.0054 23.235 29.9601 23.2693 29.9216C23.3515 29.8519 23.4571 29.817 23.564 29.8242C23.6367 29.8276 23.707 29.8515 23.7669 29.8933C23.8269 29.935 23.8742 29.9929 23.9035 30.0604C23.9328 30.1279 23.9429 30.2023 23.9327 30.2753C23.9226 30.3483 23.8925 30.417 23.8459 30.4736C23.7628 30.5369 23.6616 30.5711 23.5576 30.5711C23.4537 30.5711 23.3525 30.5369 23.2693 30.4736C23.206 30.3999 23.1718 30.3051 23.1732 30.2074Z" fill="black"/>
<path d="M28.3753 30.5257H27.5937L26.748 29.1423L26.4597 29.3567V30.5257H25.7742V27.2783H26.4597V28.7786L26.7288 28.3954L27.6001 27.2783H28.3625L27.2349 28.7267L28.3753 30.5257Z" fill="black"/>
<path d="M28.7791 27.2459H29.7913C30.1341 27.2218 30.4771 27.2913 30.7844 27.4472C30.891 27.5153 30.9768 27.6121 31.0322 27.7268C31.0877 27.8415 31.1105 27.9696 31.0983 28.0967C31.1057 28.2674 31.0585 28.436 30.9637 28.5773C30.9207 28.6378 30.8662 28.689 30.8036 28.728C30.7409 28.767 30.6712 28.793 30.5986 28.8046C30.7731 28.8356 30.9304 28.9303 31.0406 29.0709C31.1572 29.261 31.2032 29.487 31.1704 29.7084C31.1375 29.9298 31.0279 30.1321 30.8612 30.279C30.605 30.4552 30.2991 30.5418 29.9899 30.5258H28.7791V27.2459ZM29.471 28.5448H29.8682C30.009 28.5606 30.1509 28.5286 30.2718 28.4539C30.3146 28.4208 30.3482 28.3772 30.3695 28.3271C30.3908 28.2771 30.3991 28.2224 30.3935 28.1681C30.3981 28.1145 30.3879 28.0607 30.3642 28.0125C30.3404 27.9644 30.304 27.9239 30.259 27.8954C30.1244 27.834 29.977 27.8072 29.8298 27.8174H29.471V28.5448ZM29.471 29.0969V29.9542H29.9194C30.0664 29.9646 30.2127 29.9259 30.3359 29.8438C30.3821 29.8016 30.4183 29.7492 30.4416 29.6907C30.4649 29.6322 30.4748 29.569 30.4704 29.5061C30.4704 29.2333 30.2782 29.0969 29.8938 29.0969H29.471Z" fill="black"/>
<path d="M33.6801 30.5257H33.001V27.2783H34.8589V27.8499H33.6801V28.7007H34.7756V29.2657H33.6801V30.5257Z" fill="black"/>
<path d="M35.4932 30.5257V27.2783H36.1723V30.5257H35.4932Z" fill="black"/>
<path d="M39.8305 30.5257H38.9592L37.5561 28.0447C37.5561 28.4864 37.5945 28.7981 37.5945 28.9865V30.5322H36.9539V27.2458H37.8252L39.2603 29.6944C39.2603 29.2657 39.2603 28.967 39.2603 28.7916V27.2523H39.901V30.4998L39.8305 30.5257Z" fill="black"/>
<path d="M42.6497 30.5258L42.419 29.7464H41.2402L41.0031 30.5258H40.2664L41.4068 27.2329H42.246L43.3928 30.5258H42.6497ZM42.2524 29.1619C42.041 28.4539 41.9193 28.0578 41.8873 27.9668L41.8296 27.746C41.7783 27.9344 41.6438 28.3955 41.4132 29.1684H42.2524V29.1619Z" fill="black"/>
<path d="M46.6667 30.5257H45.7953L44.3859 28.0447C44.3859 28.4864 44.4307 28.7981 44.4307 28.9865V30.5322H43.79V27.2458H44.655L46.0644 29.7074C46.0644 29.2787 46.0644 28.98 46.0644 28.8046V27.2523H46.7051V30.4998L46.6667 30.5257Z" fill="black"/>
<path d="M49.3893 29.6163C49.3951 29.75 49.3697 29.8832 49.3151 30.0051C49.2606 30.127 49.1784 30.2341 49.0754 30.3177C48.8197 30.5008 48.5101 30.5902 48.1977 30.571C47.8817 30.5763 47.5687 30.5097 47.2815 30.3762V29.7267C47.4618 29.8102 47.6481 29.8797 47.8389 29.9345C47.9738 29.9768 48.1141 29.9987 48.2553 29.9995C48.377 30.0054 48.4977 29.9737 48.6013 29.9086C48.6415 29.8791 48.6737 29.8399 48.695 29.7945C48.7163 29.7491 48.7259 29.699 48.723 29.6488C48.7228 29.5865 48.7051 29.5257 48.6718 29.4734C48.6257 29.418 48.5717 29.3698 48.5116 29.3305C48.3786 29.2461 48.2394 29.1722 48.0951 29.1097C47.9359 29.0403 47.7871 28.9484 47.6531 28.8369C47.5549 28.753 47.4724 28.6518 47.4096 28.5382C47.3514 28.4123 47.3229 28.2744 47.3263 28.1355C47.3204 28.0062 47.3433 27.8771 47.3932 27.758C47.4431 27.6388 47.5188 27.5325 47.6146 27.447C47.8458 27.2686 48.1317 27.1789 48.4219 27.1937C48.5843 27.1921 48.7461 27.2139 48.9024 27.2587C49.0666 27.3024 49.2272 27.3588 49.3829 27.4275L49.1587 27.9666C49.0186 27.9083 48.8753 27.8584 48.7294 27.8172C48.6201 27.7918 48.5084 27.7787 48.3963 27.7783C48.2905 27.7723 48.1861 27.8046 48.1016 27.8692C48.0676 27.8987 48.0407 27.9357 48.0229 27.9773C48.0052 28.019 47.997 28.0642 47.999 28.1095C47.998 28.1661 48.0112 28.222 48.0375 28.2719C48.0726 28.3245 48.1185 28.3688 48.172 28.4018C48.3117 28.4899 48.4573 28.568 48.6077 28.6356C48.8503 28.7339 49.0689 28.8846 49.2484 29.0772C49.3533 29.236 49.4029 29.4257 49.3893 29.6163Z" fill="black"/>
<path d="M49.9788 30.5257V27.2783H50.6643V30.5257H49.9788Z" fill="black"/>
<path d="M53.4578 30.5258L53.2207 29.7464H52.0419L51.8112 30.5258H51.0745L52.2149 27.2329H53.0541L54.1945 30.5258H53.4578ZM53.0605 29.1619C52.8427 28.4539 52.721 28.0578 52.6954 27.9668L52.6441 27.746C52.5929 27.9365 52.4519 28.4106 52.2213 29.1684H53.067L53.0605 29.1619Z" fill="black"/>
<path d="M57.1287 30.5256L56.3535 27.9277C56.3535 28.4537 56.3919 28.798 56.3919 28.9733V30.4996H55.7512V27.2522H56.6866L57.449 29.7592L58.2626 27.2522H59.198V30.4996H58.5574V28.9733C58.5574 28.9019 58.5574 28.8175 58.5574 28.72C58.5574 28.6226 58.5574 28.3758 58.5894 27.9601L57.7501 30.5581L57.1287 30.5256Z" fill="black"/>
<path d="M62.6835 27.2458V29.3697C62.6915 29.5971 62.636 29.8223 62.5233 30.0191C62.417 30.2038 62.2554 30.3494 62.062 30.4348C61.8377 30.541 61.5919 30.5922 61.3444 30.5842C60.9929 30.6053 60.6467 30.4891 60.377 30.2594C60.2594 30.1453 60.1676 30.0066 60.1079 29.853C60.0481 29.6994 60.0219 29.5345 60.0311 29.3697V27.2458H60.7166V29.2527C60.7001 29.4516 60.7546 29.6499 60.8704 29.8113C61.0092 29.9246 61.1822 29.9864 61.3605 29.9864C61.5388 29.9864 61.7117 29.9246 61.8506 29.8113C61.9653 29.6494 62.0197 29.4515 62.0043 29.2527V27.2458H62.6835Z" fill="black"/>
<path d="M63.4778 30.5257V27.2783H64.1761V29.9542H65.4575V30.5257H63.4778Z" fill="black"/>
<path d="M67.2835 30.5257H66.5979V27.8239H65.7202V27.2458H68.1612V27.8239H67.2835V30.5257Z" fill="black"/>
<path d="M68.6609 30.5257V27.2783H69.3464V30.5257H68.6609Z" fill="black"/>
<path d="M72.0116 30.5257H71.3389V27.2783H73.1904V27.8499H72.0116V28.7007H73.1071V29.2657H72.0116V30.5257Z" fill="black"/>
<path d="M73.8247 30.5257V27.2783H74.5102V30.5257H73.8247Z" fill="black"/>
<path d="M78.194 30.5257H77.3227L75.9132 28.0447C75.9132 28.4864 75.9581 28.7981 75.9581 28.9865V30.5322H75.3174V27.2458H76.1823L77.5918 29.6944C77.5918 29.2657 77.5533 28.967 77.5533 28.7916V27.2523H78.194V30.4998V30.5257Z" fill="black"/>
<path d="M80.9875 30.5258L80.7504 29.7464H79.5524L79.3217 30.5258H78.585L79.7254 27.2329H80.5646L81.705 30.5258H80.9875ZM80.5903 29.1619C80.3724 28.4539 80.2507 28.0578 80.2251 27.9668C80.1995 27.8759 80.1931 27.798 80.1931 27.746C80.1418 27.9365 80.0009 28.4106 79.7702 29.1684H80.6159L80.5903 29.1619Z" fill="black"/>
<path d="M85.0043 30.5257H84.133L82.7556 28.0447C82.7556 28.4864 82.794 28.7981 82.794 28.9865V30.5322H82.1533V27.2458H83.0182L84.4021 29.6944C84.4021 29.2657 84.3636 28.967 84.3636 28.7916V27.2523H85.0043V30.4998V30.5257Z" fill="black"/>
<path d="M87.189 27.7784C87.0728 27.7739 86.9572 27.7982 86.8523 27.8492C86.7474 27.9001 86.6563 27.9761 86.5868 28.0706C86.4324 28.3162 86.3584 28.6048 86.3753 28.8955C86.3753 29.6229 86.6508 29.9931 87.189 29.9931C87.4723 29.9823 87.7517 29.9231 88.0155 29.8177V30.4023C87.7323 30.5167 87.4298 30.5741 87.1249 30.5711C86.925 30.5831 86.725 30.5503 86.5389 30.4751C86.3529 30.3999 86.1855 30.2841 86.0486 30.136C85.7754 29.7817 85.6407 29.3377 85.6706 28.889C85.6649 28.5798 85.7284 28.2734 85.8564 27.9927C85.9679 27.7439 86.154 27.5371 86.3882 27.4017C86.6334 27.2587 86.9126 27.1868 87.1954 27.1938C87.5228 27.1979 87.845 27.2779 88.1372 27.4276L87.9194 27.9927C87.8011 27.9346 87.6791 27.8847 87.5542 27.8433C87.4371 27.8003 87.3135 27.7783 87.189 27.7784Z" fill="black"/>
<path d="M90.5655 30.5257H88.7012V27.2783H90.5655V27.8499H89.3931V28.5708H90.4887V29.1423H89.3931V29.9867H90.5655V30.5257Z" fill="black"/>
</g>
<defs>
<clipPath id="clip0_626_3972">
<rect width="97.6" height="32" fill="white"/>
</clipPath>
</defs>
</svg>
