<svg width="327" height="215" viewBox="0 0 327 215" fill="none" xmlns="http://www.w3.org/2000/svg">
<path opacity="0.43" d="M280.415 87.9988C292.022 98.0492 302.448 117.142 297.679 129.281C294.974 136.167 288.175 138.791 264.389 143.023C220.486 150.833 186.608 152.041 183.491 152.14C152.19 153.134 156.904 151.459 135.418 152.75C111.118 154.21 100.229 156.644 81.0289 153.693C65.6003 151.323 56.6912 149.953 47.1194 142.447C25.8333 125.753 22.7813 95.5783 22.2774 90.5948C21.5855 83.7558 20.0117 60.1229 33.0143 39.3569C52.6006 8.07577 95.1076 -0.483152 120.118 16.1122C149.405 35.5452 137.996 78.386 163.736 90.1735C186.462 100.581 204.172 71.2234 252.614 76.6972C259.817 77.5111 270.498 79.4113 280.415 87.9988Z" fill="#FFAD00"/>
<path d="M92.9824 154.084H84.71V203.386H92.9824V154.084Z" fill="#E6E7E8"/>
<path d="M235.497 154.084H227.225V203.386H235.497V154.084Z" fill="#E6E7E8"/>
<path fill-rule="evenodd" clip-rule="evenodd" d="M77.6238 161.947H87.5996V211.933H77.6238V161.947ZM78.3076 162.632V211.249H86.9157V162.632H78.3076Z" fill="#FFBC00"/>
<path fill-rule="evenodd" clip-rule="evenodd" d="M237.703 161.947H247.679V211.933H237.703V161.947ZM238.387 162.632V211.249H246.995V162.632H238.387Z" fill="#FFBC00"/>
<path d="M116.275 67.8826L126.879 135.716L135.922 135.584C135.922 135.584 123.712 69.1997 116.275 67.8826Z" fill="#FF9A00"/>
<path d="M126.879 135.716C126.879 135.716 123.161 72.2337 116.275 67.8824C116.275 67.8824 140.195 65.9759 143.808 67.9747C147.422 69.9736 156.695 135.624 156.695 135.624C156.695 135.624 133.869 138.014 126.879 135.716Z" fill="#FFBC00"/>
<path d="M157.938 157.23H150.637V199.063H157.938V157.23Z" fill="#FFBC00"/>
<path fill-rule="evenodd" clip-rule="evenodd" d="M157.938 157.23H150.637V175.3H157.938V157.23Z" fill="black" fill-opacity="0.29"/>
<path d="M135.528 204.212C135.528 197.55 143.926 192.149 154.287 192.149C164.647 192.149 173.046 197.55 173.046 204.212" fill="#FFBC00"/>
<path d="M218.494 198.736H206.468L193.431 149.916C193.431 149.916 160.265 151.823 156.239 150.467C152.212 149.112 159.43 144.45 159.43 144.45L190.291 133.481C193.619 132.356 198.305 132.499 201.477 134.01L201.889 134.447C203.03 135.656 203.705 137.233 203.794 138.894L218.494 198.736Z" fill="#FFBC00"/>
<path d="M209.778 205.653L215.155 205.612L213.669 196.366L207.935 198.076L209.778 205.653Z" fill="#77562F"/>
<path d="M214.65 202.204C214.65 202.204 224.873 206.053 231.025 207.204C232.684 207.514 232.237 210.893 232.237 210.893L209.024 210.707C208.646 210.707 208.325 210.43 208.273 210.055C208.087 208.713 207.767 205.072 208.777 203.792C208.98 203.535 209.479 203.747 209.94 203.893C210.452 204.055 211.367 206.595 214.409 203.983C214.694 203.738 214.32 202.544 214.65 202.204Z" fill="#FF9A00"/>
<path d="M205.132 202.637L220.557 200.299L219.273 193.725L204.447 198.103L205.132 202.637Z" fill="#FFBC00"/>
<path d="M199.094 199.618H187.069L174.032 150.798L182.49 135.329C183.631 136.539 184.306 138.115 184.395 139.777L199.094 199.618Z" fill="#FFBC00"/>
<path d="M190.379 206.535L195.756 206.495L194.27 197.248L188.536 198.959L190.379 206.535Z" fill="#77562F"/>
<path d="M195.251 203.086C195.251 203.086 205.474 206.935 211.627 208.086C213.285 208.396 212.838 211.776 212.838 211.776L189.626 211.59C189.247 211.59 188.926 211.313 188.874 210.937C188.688 209.595 188.368 205.954 189.378 204.675C189.581 204.417 190.08 204.63 190.541 204.776C191.052 204.938 191.968 207.477 195.01 204.865C195.295 204.62 194.921 203.426 195.251 203.086Z" fill="#FF9A00"/>
<path d="M185.732 203.519L201.158 201.182L199.873 194.608L185.047 198.986L185.732 203.519Z" fill="#FFBC00"/>
<path d="M171.411 77.6328C169.832 76.4199 160.448 71.9358 153.537 72.4642C147.375 72.9353 139.755 76.2546 135.466 81.6866C132.414 85.5524 136.089 84.7849 136.856 89.8102L139.526 122.595L174.357 123.364L175.928 93.8524C174.73 86.4062 176.648 81.6566 171.411 77.6328Z" fill="#FF9A00"/>
<path d="M236.054 120.623L251.243 133.758H74.0581L89.2475 120.623H236.054Z" fill="#F4F1EC"/>
<path d="M251.243 133.758H74.0581V172.258H251.243V133.758Z" fill="#D9D7D4"/>
<path d="M200.225 124.366C200.042 124.366 199.858 124.356 199.671 124.337C199.518 124.321 195.87 123.94 192.107 123.384C185.607 122.422 179.841 120.089 177.892 117.893L169.249 91.8656C167.963 89.2329 173.923 80.3914 173.923 80.3914C173.923 80.3914 177.293 86.0905 178.579 88.7235L189.14 112.098C191.599 112.643 196.62 113.349 200.766 113.78C203.677 114.084 202.906 124.366 200.225 124.366Z" fill="#FF9A00"/>
<path d="M202.547 116.909C202.547 116.909 202.83 121.909 201.455 123.286C201.455 123.286 202.782 123.935 204.277 124.379C205.773 124.823 217.715 125.899 217.715 125.899C217.715 125.899 218.174 121.573 214.18 120.721C210.186 119.869 205.753 116.52 202.547 116.909Z" fill="#77562F"/>
<path d="M97.2484 112.903C95.3325 110.554 92.5279 110.445 91.4983 111.54C90.5208 112.578 91.3694 114.95 91.6496 115.707C92.7699 118.731 95.2734 120.376 96.5677 121.086" fill="#FFBC00"/>
<path d="M101.39 127.87C107.909 127.87 113.193 126.988 113.193 125.899C113.193 124.811 107.909 123.928 101.39 123.928C94.8711 123.928 89.5864 124.811 89.5864 125.899C89.5864 126.988 94.8711 127.87 101.39 127.87Z" fill="#161F40"/>
<path d="M101.39 127.191C107.909 127.191 113.193 126.308 113.193 125.22C113.193 124.131 107.909 123.249 101.39 123.249C94.8711 123.249 89.5864 124.131 89.5864 125.22C89.5864 126.308 94.8711 127.191 101.39 127.191Z" fill="#FF9A00"/>
<path d="M95.4129 124.547C95.4423 124.6 95.5017 124.642 95.5075 124.701C95.6557 126.207 106.879 126.013 107.225 124.696C108.641 119.306 107.764 108.341 106.819 108.042C105.441 108.3 103.236 108.466 100.753 108.466C98.8861 108.466 97.176 108.371 95.8572 108.214L95.4723 109.798C94.544 114.85 94.4705 119.775 95.4129 124.547Z" fill="#FFBC00"/>
<path d="M230.41 130.219H202.739L202.622 127.386H226.094L230.41 130.219Z" fill="#FFBC00"/>
<path d="M140.754 47.2047C140.754 47.2047 144.275 52.8458 144.021 55.5538C143.766 58.2618 146.346 57.018 146.346 57.018C146.258 55.9772 147.307 54.3942 148.143 54.5687C148.767 54.6991 150.887 47.5117 147.923 46.9591C144.96 46.4064 140.754 47.2047 140.754 47.2047Z" fill="#231F20"/>
<path d="M157.223 79.0315H155.915C154.26 79.0315 152.918 77.688 152.918 76.0307V68.8357C152.918 68.0776 153.532 67.4634 154.289 67.4634H158.849C159.606 67.4634 160.22 68.0776 160.22 68.8357V76.031C160.22 77.688 158.878 79.0315 157.223 79.0315Z" fill="#77562F"/>
<path d="M152.918 69.1094L159.579 69.1778C159.579 69.1778 153.964 73.5971 152.918 72.8808V69.1094Z" fill="#231F20"/>
<path d="M156.072 69.8731H152.212C147.785 69.8731 145.3 66.2789 145.3 61.8458V51.527C145.3 47.0937 147.785 43.4998 152.212 43.4998H157.438C161.866 43.4998 165.454 47.0937 165.454 51.527V60.4775C165.454 65.6665 161.254 69.8731 156.072 69.8731Z" fill="#77562F"/>
<path d="M167.092 60.7077C168.592 60.7077 169.809 59.331 169.809 57.6328C169.809 55.9345 168.592 54.5579 167.092 54.5579C165.592 54.5579 164.376 55.9345 164.376 57.6328C164.376 59.331 165.592 60.7077 167.092 60.7077Z" fill="#77562F"/>
<path d="M145.256 59.3434C146.756 59.3434 147.972 57.9667 147.972 56.2685C147.972 54.5703 146.756 53.1936 145.256 53.1936C143.755 53.1936 142.539 54.5703 142.539 56.2685C142.539 57.9667 143.755 59.3434 145.256 59.3434Z" fill="#77562F"/>
<path d="M138.901 42.5637C138.725 40.9295 138.443 38.3985 140.141 37.2418C141.748 36.1474 144.26 36.7259 145.279 38.0401C146.187 39.2126 145.817 40.8546 146.076 40.8785C146.48 40.9157 146.238 36.8191 148.556 35.1131C150.009 34.0444 152.424 33.9442 153.428 35.0243C155.098 36.8213 153.71 38.6913 154.087 38.8415C154.51 39.0098 154.957 35.3002 158.92 34.2261C161.42 33.5486 164.616 35.1542 164.766 36.7096C164.991 39.0362 158.455 41.7855 158.388 41.6767C158.33 41.5812 162.384 37.8478 165.918 38.7497C167.381 39.1231 168.714 40.2807 169.195 41.7655C169.964 44.1394 168.54 46.8486 166.715 47.6196C165.633 48.0767 165.24 47.5026 162.574 47.368C160.322 47.2543 158.603 47.5633 156.728 47.9002C153.937 48.4018 153.697 48.8065 151.656 49.2161C149.259 49.6977 144.219 50.7098 141.198 47.9002C139.285 46.1222 139.012 43.5855 138.901 42.5637Z" fill="#231F20"/>
<path d="M159.923 47.2047C159.923 47.2047 163.445 52.8458 163.19 55.5538C162.935 58.2618 165.516 57.018 165.516 57.018C165.427 55.9772 166.477 54.3942 167.312 54.5687C167.936 54.6991 170.056 47.5117 167.093 46.9591C164.129 46.4064 159.923 47.2047 159.923 47.2047Z" fill="#231F20"/>
<path fill-rule="evenodd" clip-rule="evenodd" d="M149.937 54.5489C149.559 54.4705 148.918 54.3951 147.943 54.4487C147.229 54.488 146.761 54.6696 146.488 54.8199C146.349 54.8959 146.257 54.9659 146.204 55.0103C146.178 55.0325 146.162 55.0484 146.155 55.0553C146.154 55.0564 146.153 55.0572 146.153 55.0579C145.904 55.3412 145.473 55.3745 145.184 55.1302C144.891 54.8829 144.854 54.4445 145.101 54.1512L145.626 54.5943C145.101 54.1512 145.101 54.1508 145.102 54.1505L145.102 54.1499L145.104 54.1485L145.106 54.1456L145.112 54.1389C145.116 54.1341 145.121 54.1285 145.126 54.1223C145.138 54.1099 145.152 54.0949 145.169 54.0776C145.203 54.043 145.249 53.9992 145.308 53.9493C145.426 53.8495 145.595 53.7255 145.82 53.6016C146.274 53.3525 146.943 53.112 147.867 53.0612C148.946 53.0018 149.708 53.0824 150.219 53.1881C150.474 53.241 150.666 53.3001 150.802 53.3508C150.87 53.3761 150.924 53.3993 150.966 53.4185C150.987 53.4281 151.004 53.4367 151.018 53.444C151.025 53.4477 151.032 53.451 151.037 53.454L151.045 53.4583L151.048 53.4602L151.05 53.4611L151.051 53.4616C151.051 53.4618 151.052 53.462 150.71 54.0668L151.052 53.462C151.385 53.6508 151.503 54.0747 151.314 54.4088C151.128 54.7379 150.715 54.857 150.384 54.6799C150.383 54.6796 150.382 54.6794 150.382 54.6791C150.374 54.6755 150.354 54.6664 150.319 54.6536C150.251 54.6282 150.127 54.5881 149.937 54.5489ZM150.369 54.6722V54.6721V54.6722Z" fill="#231F20"/>
<path fill-rule="evenodd" clip-rule="evenodd" d="M156.345 53.1881C156.855 53.0824 157.617 53.0018 158.696 53.0612C159.621 53.112 160.29 53.3525 160.743 53.6017C160.969 53.7255 161.137 53.8495 161.255 53.9494C161.314 53.9992 161.36 54.043 161.394 54.0777C161.412 54.095 161.426 54.11 161.437 54.1224C161.443 54.1286 161.447 54.1341 161.452 54.139L161.458 54.1456L161.46 54.1486L161.461 54.15L161.462 54.1506C161.462 54.1509 161.462 54.1513 160.932 54.599L161.462 54.1513C161.709 54.4447 161.672 54.883 161.379 55.1303C161.089 55.3745 160.659 55.3411 160.41 55.0578C160.41 55.0572 160.409 55.0563 160.408 55.0552C160.401 55.0483 160.385 55.0325 160.359 55.0103C160.306 54.9659 160.214 54.8958 160.076 54.8199C159.802 54.6696 159.335 54.488 158.62 54.4487C157.645 54.3951 157.005 54.4705 156.626 54.5489C156.437 54.5881 156.313 54.6282 156.244 54.6536C156.21 54.6664 156.189 54.6755 156.182 54.6791C156.181 54.6794 156.181 54.6796 156.18 54.6799C155.849 54.857 155.435 54.7379 155.249 54.4088C155.061 54.0747 155.178 53.6508 155.512 53.462L155.854 54.0668C155.512 53.462 155.512 53.4618 155.513 53.4616L155.514 53.4611L155.515 53.4602L155.518 53.4583L155.526 53.454C155.532 53.451 155.538 53.4477 155.545 53.444C155.56 53.4367 155.577 53.4281 155.598 53.4185C155.639 53.3993 155.693 53.3761 155.761 53.3508C155.898 53.3001 156.09 53.241 156.345 53.1881ZM160.402 55.0481C160.402 55.048 160.402 55.0479 160.402 55.0477C160.402 55.0476 160.402 55.0475 160.402 55.0474L160.402 55.0477L160.402 55.048V55.0481Z" fill="#231F20"/>
<path fill-rule="evenodd" clip-rule="evenodd" d="M152.726 54.3001C152.845 54.3474 152.903 54.482 152.856 54.6009C151.892 57.029 151.574 58.7621 151.453 59.7759C151.425 60.0108 151.403 60.2584 151.426 60.4839C151.451 60.7087 151.518 60.8814 151.644 60.996L151.489 61.1678L151.644 60.996C151.754 61.0952 151.905 61.1493 152.095 61.1628C152.285 61.1764 152.498 61.1478 152.708 61.0969C153.127 60.9953 153.492 60.8157 153.555 60.7836C153.669 60.7259 153.808 60.7718 153.866 60.886C153.924 61.0002 153.878 61.1394 153.764 61.1971C153.69 61.2346 153.288 61.433 152.816 61.5472C152.581 61.6043 152.317 61.6431 152.062 61.6248C151.806 61.6065 151.544 61.5294 151.334 61.3395C151.09 61.1182 150.997 60.8163 150.966 60.5331C150.936 60.2505 150.966 59.9565 150.994 59.7212C151.119 58.67 151.447 56.8975 152.426 54.4298C152.473 54.3109 152.608 54.2529 152.726 54.3001Z" fill="#231F20"/>
<path d="M152.916 64.3781C152.983 64.4502 153.436 66.0366 155.092 65.8603C155.915 65.7726 156.572 65.0485 156.347 63.7078L152.916 64.3781Z" fill="white"/>
<path d="M148.17 57.1765C148.529 57.1765 148.82 56.8852 148.82 56.5258C148.82 56.1665 148.529 55.8752 148.17 55.8752C147.811 55.8752 147.521 56.1665 147.521 56.5258C147.521 56.8852 147.811 57.1765 148.17 57.1765Z" fill="#231F20"/>
<path d="M157.837 57.1765C158.196 57.1765 158.487 56.8852 158.487 56.5258C158.487 56.1665 158.196 55.8752 157.837 55.8752C157.479 55.8752 157.188 56.1665 157.188 56.5258C157.188 56.8852 157.479 57.1765 157.837 57.1765Z" fill="#231F20"/>
<path fill-rule="evenodd" clip-rule="evenodd" d="M162.614 75.7697C162.968 75.896 163.153 76.2858 163.027 76.6406L162.385 76.4118C163.027 76.6406 163.026 76.6409 163.026 76.6415L163.026 76.6425L163.025 76.6449L163.023 76.6507C163.021 76.655 163.019 76.6605 163.017 76.6667C163.012 76.6793 163.006 76.6955 162.997 76.7151C162.982 76.7544 162.959 76.8074 162.928 76.8718C162.867 77.0009 162.774 77.1767 162.644 77.3803C162.383 77.7875 161.966 78.3113 161.337 78.7968C160.059 79.7839 157.988 80.5485 154.774 80.013C152.676 79.6631 151.267 79.0231 150.329 78.2733C150.035 78.0387 149.986 77.6097 150.221 77.3156C150.455 77.0212 150.884 76.973 151.177 77.2079C151.889 77.7759 153.062 78.3457 154.998 78.6683C157.88 79.1485 159.559 78.4487 160.506 77.7173C160.99 77.3438 161.305 76.9448 161.498 76.644C161.594 76.494 161.659 76.3692 161.698 76.2864C161.718 76.245 161.731 76.2143 161.738 76.1966C161.742 76.1874 161.745 76.1815 161.746 76.1794L161.745 76.18L161.745 76.1812L162.614 75.7697ZM162.614 75.7697C162.261 75.6439 161.874 75.8267 161.746 76.1788L162.614 75.7697ZM161.746 76.1788C161.746 76.1788 161.746 76.1791 161.746 76.1794L161.746 76.1785C161.746 76.1779 161.746 76.1782 161.746 76.1788Z" fill="#FFBC00"/>
<path d="M241.582 115.938H172.538L182.342 71.7666H251.386L241.582 115.938Z" fill="#FE8903"/>
<path d="M219.681 127.442H211.491L208.297 102.086H216.487L219.681 127.442Z" fill="#FFBC00"/>
<path d="M208.298 102.086L205.719 115.938L210.037 115.901L208.298 102.086Z" fill="#161F40"/>
<path d="M197.577 126.001H144.453V127.172H197.577V126.001Z" fill="#161F40"/>
<path d="M193.023 122.062L197.577 126.001H144.453L149.007 122.062H193.023Z" fill="#FFBC00"/>
<path d="M140.905 119.935L146.55 120.688L154.079 118.588L157.914 119.556C157.914 119.556 158.873 121.621 158.253 122.544L157.668 122.522C157.668 122.522 158.23 124.347 157.501 124.59C156.771 124.833 156.929 125.327 156.929 125.327C156.929 125.327 157.296 126.333 155.379 127.027C155.379 127.027 155.785 128.97 154.621 128.79C153.457 128.612 148.003 128.767 145.529 127.502L140.646 126.868C140.646 126.868 140.71 121.551 140.905 119.935Z" fill="#77562F"/>
<path d="M145.091 128.383C144.242 128.383 118.605 126.06 119.36 122.832C121.44 113.937 134.498 83.1846 134.498 83.1846C135.863 80.5924 138.355 81.2799 140.945 82.648C143.534 84.0154 144.525 87.225 143.16 89.8175L132.61 117.202L145.876 120.385C145.876 120.385 145.357 125.833 145.091 128.383Z" fill="#FF9A00"/>
<path fill-rule="evenodd" clip-rule="evenodd" d="M99.9004 152.256C99.9004 152.067 100.054 151.914 100.242 151.914H259.002C259.191 151.914 259.344 152.067 259.344 152.256C259.344 152.445 259.191 152.599 259.002 152.599H100.242C100.054 152.599 99.9004 152.445 99.9004 152.256Z" fill="#FFBC00"/>
<path fill-rule="evenodd" clip-rule="evenodd" d="M67.95 133.758C67.95 133.569 68.103 133.416 68.2918 133.416H238.044C238.233 133.416 238.386 133.569 238.386 133.758C238.386 133.947 238.233 134.101 238.044 134.101H68.2918C68.103 134.101 67.95 133.947 67.95 133.758Z" fill="#FFBC00"/>
<path fill-rule="evenodd" clip-rule="evenodd" d="M73.7161 172.258C73.7161 172.069 73.8692 171.916 74.0581 171.916H251.243C251.431 171.916 251.585 172.069 251.585 172.258C251.585 172.447 251.431 172.601 251.243 172.601H74.0581C73.8692 172.601 73.7161 172.447 73.7161 172.258Z" fill="#FFBC00"/>
<path opacity="0.7" d="M105.093 32.8499C105.093 46.0806 94.367 56.8062 81.1363 56.8062C67.9055 56.8062 57.1799 46.0806 57.1799 32.8499C57.1799 19.6191 67.9055 8.89355 81.1363 8.89355C94.367 8.89355 105.093 19.6191 105.093 32.8499Z" fill="#FFBC00"/>
<path opacity="0.56" d="M101.029 32.8499C101.029 43.8363 92.1224 52.7424 81.136 52.7424C70.1496 52.7424 61.2434 43.8363 61.2434 32.8499C61.2434 21.8635 70.1496 12.9573 81.136 12.9573C92.1224 12.9573 101.029 21.8635 101.029 32.8499Z" fill="#FFAD00"/>
<path opacity="0.9" d="M81.7269 34.279L118.353 1.15381L118.758 3.58734L82.2676 46.7166L68.4109 28.5334L81.7269 34.279Z" fill="#FF9A00"/>
<path d="M69.8706 65.0905C69.8706 66.6164 68.6335 67.8535 67.1075 67.8535C65.5815 67.8535 64.3445 66.6164 64.3445 65.0905C64.3445 63.5645 65.5815 62.3274 67.1075 62.3274C68.6335 62.3274 69.8706 63.5645 69.8706 65.0905Z" fill="#FFBC00"/>
<path d="M87.0012 65.0906C87.0012 66.6167 85.7641 67.8537 84.2381 67.8537C82.7122 67.8537 81.4751 66.6167 81.4751 65.0906C81.4751 63.5647 82.7122 62.3276 84.2381 62.3276C85.7641 62.3276 87.0012 63.5647 87.0012 65.0906Z" fill="#FFBC00"/>
<path d="M96.3466 65.0906C96.3466 66.6167 95.1096 67.8537 93.5837 67.8537C92.0576 67.8537 90.8206 66.6167 90.8206 65.0906C90.8206 63.5647 92.0576 62.3276 93.5837 62.3276C95.1096 62.3276 96.3466 63.5647 96.3466 65.0906Z" fill="#FE8903"/>
<path d="M67.2644 62.3274H84.2376V67.8535H67.2644V62.3274Z" fill="#FFBC00"/>
</svg>
