<svg width="375" height="88" viewBox="0 0 375 88" fill="none" xmlns="http://www.w3.org/2000/svg">
<path opacity="0.15" d="M375 3.05176e-05H0V22.1746C5.11535 31.5909 12.0324 37.1377 26.5038 41.9973C58.5058 52.744 73.9214 14.957 110.526 16.799C154.908 19.0322 148.467 68.9028 192.293 64.1719C220.528 61.124 218.357 36.0384 246.992 34.9418C280.137 33.6725 285.979 68.2079 319.173 68.8756C350.006 69.4958 361.532 58.5341 375 41.9973V3.05176e-05Z" fill="#FFBC00"/>
<path opacity="0.1" d="M375 0H0C0 0 27.1813 51.6808 63.4356 55.8416C97.5274 59.7541 106.674 18.7812 140.906 21.7918C174.029 24.7051 174.23 59.4017 206.587 65.8295C245.503 73.5603 265.146 33.38 304.266 40.4057C339.096 46.6608 340.619 94.8781 375 87.1673V0Z" fill="#FFBC00"/>
</svg>
