<svg width="22" height="35" viewBox="0 0 22 35" fill="none" xmlns="http://www.w3.org/2000/svg">
<path fill-rule="evenodd" clip-rule="evenodd" d="M3.47684 0H17.4613C19.393 0 21.0155 1.5452 21.0155 3.47684V31.4458C21.0155 33.3774 19.393 35 17.4613 35H3.47684C1.5452 35 0 33.3774 0 31.4458V3.47684C0 1.5452 1.5452 0 3.47684 0ZM8.26719 3.09058C7.9581 3.09058 7.72641 2.8589 7.72641 2.54981C7.72641 2.24073 7.9581 2.00904 8.26719 2.00904H12.7484C13.0575 2.00904 13.2892 2.24073 13.2892 2.54981C13.2892 2.8589 13.0575 3.09058 12.7484 3.09058H8.26719ZM10.508 31.4464C11.0487 31.4464 11.5123 31.91 11.5123 32.4508C11.5123 32.9916 11.0487 33.4552 10.508 33.4552C9.88979 33.4552 9.50357 32.9915 9.50357 32.4508C9.50357 31.91 9.8898 31.4464 10.508 31.4464ZM1.31351 5.09935V29.9008H19.7018V5.09935H1.31351Z" fill="#FFBC00"/>
<path d="M9.05477 21.6337C9.20657 21.7808 9.43578 21.7745 9.58055 21.6191L15.8421 14.904C15.9967 14.738 15.9984 14.4651 15.8457 14.2969L14.7816 13.1248C14.6322 12.9605 14.3911 12.9581 14.2389 13.1194L9.58891 18.0652C9.44047 18.2228 9.20573 18.225 9.05541 18.0695L6.76348 15.7025C6.60011 15.5336 6.34091 15.5524 6.19918 15.7435L5.08748 17.2399C4.95562 17.4174 4.97488 17.6782 5.13137 17.8299L9.05477 21.6337Z" fill="#FFBC00"/>
</svg>
