<svg width="34" height="35" viewBox="0 0 34 35" fill="none" xmlns="http://www.w3.org/2000/svg">
<path d="M16.3726 5.77574C19.9209 5.77574 23.1344 7.21474 25.4593 9.53974C27.7843 11.865 29.2233 15.0786 29.2233 18.6265C29.2233 22.1747 27.7843 25.3882 25.4593 27.7132C23.1341 30.0382 19.9205 31.4772 16.3726 31.4772C12.8244 31.4772 9.61085 30.0382 7.28592 27.7126C4.96066 25.3876 3.5214 22.1742 3.5214 18.6259C3.5214 15.0776 4.9604 11.8641 7.2854 9.53922C9.61065 7.21422 12.8243 5.77522 16.3721 5.77522L16.3726 5.77574ZM30.8492 15.5022C30.4607 15.606 30.0607 15.3749 29.9568 14.9864C29.853 14.5978 30.0841 14.1978 30.4726 14.094L32.1164 13.6538C32.505 13.5499 32.905 13.781 33.0088 14.1696C33.1127 14.5581 32.8816 14.9581 32.493 15.0619L30.8492 15.5022ZM29.5451 11.8606C29.1975 12.0601 28.7527 11.9402 28.5532 11.5926C28.3536 11.245 28.4735 10.8002 28.8211 10.6007L30.2952 9.7498C30.6428 9.5503 31.0876 9.67015 31.2871 10.0178C31.4866 10.3653 31.3668 10.8101 31.0192 11.0097L29.5451 11.8606ZM27.3485 8.68259C27.0638 8.96734 26.6019 8.96734 26.3169 8.68259C26.0322 8.39785 26.0322 7.936 26.3169 7.651L27.5201 6.44788C27.8048 6.16314 28.2667 6.16314 28.5517 6.44788C28.8364 6.73263 28.8364 7.19448 28.5517 7.47948L27.3485 8.68259ZM24.3988 6.17845C24.1993 6.52605 23.7548 6.6459 23.4069 6.4464C23.0593 6.2469 22.9395 5.80236 23.139 5.45448L23.9898 3.98037C24.1893 3.63278 24.6339 3.51292 24.9818 3.71242C25.3294 3.91192 25.4492 4.35647 25.2497 4.70435L24.3988 6.17845ZM20.9053 4.52696C20.8015 4.91552 20.4017 5.14658 20.0129 5.04276C19.6244 4.93894 19.3933 4.53918 19.4971 4.15037L19.9373 2.50657C20.0412 2.11801 20.4409 1.88696 20.8297 1.99077C21.2183 2.0946 21.4493 2.49436 21.3455 2.88316L20.9053 4.52696ZM15.6428 11.4952C15.6428 11.0924 15.9698 10.7655 16.3726 10.7655C16.7754 10.7655 17.1024 11.0924 17.1024 11.4952V18.3254L19.7215 20.9446C20.0063 21.2294 20.0063 21.6912 19.7215 21.9762C19.4368 22.261 18.9749 22.261 18.6899 21.9762L15.8725 19.1588C15.7308 19.0257 15.6425 18.8364 15.6425 18.6272V11.4954L15.6428 11.4952ZM31.2861 18.627C31.2861 18.2242 31.6131 17.8972 32.0159 17.8972C32.4187 17.8972 32.7457 18.2242 32.7457 18.627C32.7457 23.1476 30.9122 27.2415 27.9498 30.2041C24.9871 33.1668 20.8929 35 16.3727 35C11.8521 35 7.75761 33.1671 4.79559 30.2044C1.83291 27.2417 0 23.1475 0 18.6273C0 14.1067 1.83343 10.0122 4.79585 7.05019C7.38754 4.4585 10.8446 2.73118 14.6962 2.33909L13.6023 1.24515C13.3175 0.960409 13.3175 0.498556 13.6023 0.213558C13.887 -0.071186 14.3489 -0.071186 14.6338 0.213558L16.8731 2.45231C17.0149 2.58539 17.1032 2.77471 17.1032 2.98388C17.1032 3.3867 16.7762 3.71367 16.3734 3.71367C12.2546 3.71367 8.52631 5.38321 5.82811 8.08128C3.13004 10.7793 1.46051 14.5085 1.46051 18.6272C1.46051 22.7459 3.12978 26.4749 5.82785 29.1731C8.52592 31.8713 12.2551 33.5404 16.3737 33.5404C20.4924 33.5404 24.2215 31.8709 26.9197 29.1728C29.6179 26.4748 31.2873 22.7461 31.2873 18.6276L31.2861 18.627ZM11.3173 8.41531L11.784 9.22321C11.9853 9.5708 11.8667 10.0169 11.5191 10.2181C11.1715 10.4194 10.7254 10.3008 10.5242 9.95323L10.0573 9.14456C9.43025 9.56239 8.84782 10.0408 8.31697 10.5716C7.78667 11.1019 7.30831 11.6849 6.89048 12.3113L7.6989 12.7783C8.04649 12.9795 8.16507 13.4254 7.9638 13.7732C7.76252 14.1208 7.3167 14.2394 6.96888 14.0381L6.16144 13.5714C5.50825 14.8885 5.10235 16.3509 5.00464 17.8967H5.93624C6.33905 17.8967 6.66603 18.2237 6.66603 18.6265C6.66603 19.0293 6.33905 19.3563 5.93624 19.3563H5.00464C5.10235 20.9019 5.50797 22.3643 6.16117 23.6814L6.96907 23.2147C7.31666 23.0135 7.76277 23.132 7.96399 23.4796C8.16522 23.8272 8.04669 24.2733 7.6991 24.4746L6.89068 24.9415C7.30902 25.568 7.78743 26.1509 8.31769 26.6813C8.84799 27.2116 9.43097 27.6904 10.0574 28.1083L10.5244 27.2999C10.7257 26.9523 11.1715 26.8337 11.5193 27.035C11.8669 27.2362 11.9855 27.6821 11.7842 28.0299L11.3175 28.8378C12.6351 29.491 14.097 29.8963 15.6426 29.9943V29.0627C15.6426 28.6599 15.9696 28.3329 16.3724 28.3329C16.7752 28.3329 17.1022 28.6599 17.1022 29.0627V29.9943C18.6479 29.8966 20.1102 29.4907 21.4275 28.8375L20.9609 28.0301C20.7596 27.6825 20.8782 27.2364 21.2258 27.0352C21.5734 26.8339 22.0195 26.9525 22.2207 27.3L22.6876 28.1085C23.3141 27.6906 23.8971 27.2122 24.4274 26.682C24.9577 26.1512 25.4366 25.5687 25.8544 24.9417L25.0457 24.4748C24.6981 24.2735 24.5795 23.8277 24.7808 23.4798C24.9821 23.1322 25.4279 23.0137 25.7757 23.2149L26.5836 23.6816C27.2364 22.364 27.6422 20.9021 27.7402 19.3565H26.8091C26.4063 19.3565 26.0793 19.0295 26.0793 18.6267C26.0793 18.2239 26.4063 17.8969 26.8091 17.8969H27.7402C27.6425 16.3513 27.2368 14.8889 26.5836 13.5718L25.7757 14.038C25.4281 14.2392 24.982 14.1207 24.7808 13.7731C24.5795 13.4255 24.6981 12.9794 25.0457 12.7781L25.8541 12.3112C25.4363 11.6842 24.9579 11.1018 24.4276 10.5714C23.8968 10.0406 23.3134 9.562 22.6861 9.14365L22.2207 9.95031C22.0212 10.2979 21.5767 10.4178 21.2288 10.2183C20.8812 10.0188 20.7613 9.57422 20.9608 9.22634L21.4283 8.41636C20.1106 7.76265 18.648 7.35675 17.1019 7.25904V8.19012C17.1019 8.59293 16.7749 8.91991 16.3721 8.91991C15.9693 8.91991 15.6423 8.59292 15.6423 8.19012V7.25904C14.0967 7.35675 12.6348 7.76262 11.3172 8.41557L11.3173 8.41531Z" fill="#FFBC00"/>
</svg>
