<svg width="38" height="35" viewBox="0 0 38 35" fill="none" xmlns="http://www.w3.org/2000/svg">
<path d="M27.0754 13.2192C25.7217 13.2192 24.4077 13.4981 23.2132 13.9358V5.33537C23.2132 1.83143 17.3601 0 11.6265 0C5.85314 0 0 1.83171 0 5.33537V25.2836C0 28.7875 5.85306 30.6189 11.5867 30.6189C13.8564 30.6189 16.1258 30.3401 18.0369 29.7826C19.9481 32.7292 23.2929 34.72 27.0753 34.72C33.0081 34.72 37.8259 29.902 37.8259 23.9695C37.8259 18.0369 33.0079 13.2192 27.0754 13.2192ZM11.5867 2.30944C17.1609 2.30944 20.864 4.14116 20.864 5.33544C20.864 6.53002 17.1612 8.36145 11.5867 8.36145C6.01247 8.36145 2.30937 6.52973 2.30937 5.33544C2.30937 4.14087 6.01219 2.30944 11.5867 2.30944ZM2.30937 8.64024C4.53904 9.95419 8.08273 10.6708 11.5867 10.6708C15.0906 10.6708 18.6343 9.99397 20.864 8.64024V10.3125C20.864 11.5071 17.1612 13.3385 11.5867 13.3385C6.01247 13.3385 2.30937 11.5068 2.30937 10.3125V8.64024ZM2.30937 13.6573C4.53904 14.9712 8.08273 15.6879 11.5867 15.6879C15.0906 15.6879 18.6343 15.011 20.864 13.6573V15.2101C20.1074 15.7676 19.3908 16.4047 18.7934 17.1213C17.1609 17.8378 14.6526 18.3555 11.5866 18.3555C6.0124 18.3555 2.3093 16.5238 2.3093 15.3295L2.30937 13.6573ZM2.30937 18.6344C4.53904 19.9483 8.08273 20.665 11.5867 20.665C13.4581 20.665 15.3692 20.4658 17.0415 20.0678C16.6832 20.9438 16.4444 21.8595 16.3647 22.8549C15.011 23.1735 13.3784 23.3326 11.5867 23.3326C6.01251 23.3326 2.30941 21.5009 2.30941 20.3066L2.30937 18.6344ZM11.5867 28.3099C6.01247 28.3099 2.30937 26.4781 2.30937 25.2839V23.6116C4.53904 24.9255 8.08273 25.6421 11.5867 25.6421C13.2192 25.6421 14.8518 25.483 16.3646 25.2041C16.4443 26.0801 16.6832 26.9161 16.9618 27.6727C15.5284 28.071 13.697 28.3099 11.5867 28.3099ZM27.9912 29.3053V30.659C27.9912 30.8181 27.8718 30.9378 27.7123 30.9378H26.3984C26.2392 30.9378 26.1195 30.8184 26.1195 30.659V29.345C24.7658 29.2653 23.6907 28.2302 23.5713 26.8765C23.5713 26.7173 23.6907 26.5976 23.8501 26.5976H25.1641C25.2835 26.5976 25.4029 26.6773 25.4029 26.7967C25.4826 27.195 25.8409 27.5133 26.2789 27.5133H27.4334C28.1103 27.5133 28.7474 27.0356 28.8272 26.3187C28.9069 25.5225 28.3095 24.8853 27.5132 24.8853H26.6372C25.0047 24.8853 23.5315 23.6908 23.3721 22.0582C23.213 20.3062 24.4472 18.8331 26.0795 18.634V17.32C26.0795 17.1609 26.1989 17.0411 26.3584 17.0411H27.6723C27.8315 17.0411 27.9512 17.1606 27.9512 17.32V18.634C29.3049 18.7137 30.38 19.7488 30.4994 21.1025C30.4994 21.2617 30.38 21.3814 30.2206 21.3814H28.9066C28.7872 21.3814 28.6678 21.3017 28.6678 21.1822C28.5881 20.784 28.2298 20.4657 27.7918 20.4657H26.6373C25.9604 20.4657 25.3233 20.9434 25.2435 21.6602C25.1638 22.4565 25.7612 23.0936 26.5575 23.0936H27.5529C29.3846 23.0936 30.8577 24.6862 30.6983 26.5576C30.5791 27.9516 29.3848 29.0664 27.9912 29.3053Z" fill="#FFBC00"/>
<circle cx="27" cy="24" r="11" fill="#FFBC00"/>
<path d="M25.87 27C25.7967 26.7733 25.7 26.5267 25.58 26.26C25.46 25.9933 25.3333 25.7333 25.2 25.48C25.0667 25.22 24.9267 24.98 24.78 24.76C24.64 24.5333 24.5067 24.3467 24.38 24.2C24.3067 24.1267 24.2333 24.0767 24.16 24.05C24.0933 24.0167 23.9967 24 23.87 24H23.16V27H21.71V19.58C21.8767 19.5267 22.0633 19.4733 22.27 19.42C22.4767 19.36 22.69 19.31 22.91 19.27C23.13 19.2233 23.35 19.1867 23.57 19.16C23.79 19.1267 23.9967 19.11 24.19 19.11C24.5367 19.11 24.8633 19.16 25.17 19.26C25.4833 19.3533 25.7567 19.5033 25.99 19.71C26.23 19.91 26.42 20.1667 26.56 20.48C26.7 20.7867 26.77 21.1533 26.77 21.58C26.77 21.7933 26.7433 22.0067 26.69 22.22C26.6367 22.4333 26.56 22.6367 26.46 22.83C26.36 23.0167 26.2333 23.1867 26.08 23.34C25.9267 23.4933 25.75 23.6133 25.55 23.7C25.73 23.9 25.9067 24.1333 26.08 24.4C26.2533 24.66 26.4167 24.9367 26.57 25.23C26.73 25.5233 26.8733 25.8233 27 26.13C27.1333 26.43 27.25 26.72 27.35 27H25.87ZM25.33 21.53C25.33 21.2967 25.2967 21.1 25.23 20.94C25.17 20.7733 25.0867 20.64 24.98 20.54C24.8733 20.4333 24.7467 20.3567 24.6 20.31C24.46 20.2633 24.31 20.24 24.15 20.24C23.9633 20.24 23.7933 20.2567 23.64 20.29C23.4933 20.3167 23.3333 20.3567 23.16 20.41V22.86H23.87C24.0833 22.86 24.28 22.8367 24.46 22.79C24.64 22.7433 24.7933 22.67 24.92 22.57C25.0533 22.4633 25.1533 22.3267 25.22 22.16C25.2933 21.9867 25.33 21.7767 25.33 21.53ZM28.3065 21.93C28.6932 21.7433 29.1032 21.58 29.5365 21.44C29.9765 21.3 30.4165 21.23 30.8565 21.23C31.1898 21.23 31.5065 21.2967 31.8065 21.43C32.1132 21.5567 32.3798 21.7467 32.6065 22C32.8332 22.2467 33.0132 22.5567 33.1465 22.93C33.2798 23.2967 33.3465 23.7167 33.3465 24.19C33.3465 24.67 33.2798 25.0933 33.1465 25.46C33.0132 25.8267 32.8332 26.1367 32.6065 26.39C32.3798 26.6433 32.1132 26.8367 31.8065 26.97C31.5065 27.0967 31.1898 27.16 30.8565 27.16C30.6565 27.16 30.4532 27.14 30.2465 27.1C30.0465 27.0667 29.8665 27.0167 29.7065 26.95V29.36H28.3065V21.93ZM29.7065 25.86C29.8932 25.9533 30.0632 26.0233 30.2165 26.07C30.3765 26.11 30.5432 26.13 30.7165 26.13C31.1765 26.13 31.4965 25.97 31.6765 25.65C31.8565 25.3233 31.9465 24.84 31.9465 24.2C31.9465 23.54 31.8465 23.0567 31.6465 22.75C31.4532 22.4367 31.1265 22.28 30.6665 22.28C30.4932 22.28 30.3298 22.3 30.1765 22.34C30.0232 22.38 29.8665 22.43 29.7065 22.49V25.86Z" fill="white"/>
</svg>
