<svg width="30" height="34" viewBox="0 0 30 34" fill="none" xmlns="http://www.w3.org/2000/svg">
<path d="M26.7787 3.9292H25.2719V2.03248C25.2719 0.914868 24.4418 0 23.4267 0H23.2741C22.2592 0 21.4289 0.914317 21.4289 2.03248V3.9292H8.37957V2.03248C8.37957 0.914868 7.54951 0 6.53439 0H6.3818C5.36693 0 4.53661 0.914317 4.53661 2.03248V3.9292H2.97143C1.33275 3.9292 0 5.39778 0 7.20225V30.7269C0 32.5317 1.33325 34 2.97143 34H23.9014V33.9492C24.0723 33.8949 24.2339 33.797 24.3662 33.6458L29.3347 27.9592C29.5027 27.7669 29.594 27.527 29.6179 27.2807L29.75 27.281V7.20259C29.75 5.39702 28.4168 3.92899 26.7788 3.92899L26.7787 3.9292ZM21.4291 5.08475V4.24114H25.2721V6.2825C25.2721 7.40011 24.442 8.31498 23.4269 8.31498H23.2743C22.2594 8.31498 21.4291 7.40066 21.4291 6.2825L21.4291 5.08475ZM4.5366 5.08475V4.24114H8.37959V6.2825C8.37959 7.40011 7.54953 8.31498 6.53441 8.31498H6.38182C5.36695 8.31498 4.53664 7.40066 4.53664 6.2825L4.5366 5.08475ZM27.6497 25.9039H24.7295C23.6726 25.9039 22.8081 26.8561 22.8081 28.0203V31.6868H2.97129C2.49083 31.6868 2.09973 31.2562 2.09973 30.7267L2.09998 12.3784H27.6499L27.6497 25.9039Z" fill="#FFBC00"/>
<path d="M7.08388 24.488H9.58988V17.068C9.47788 17.124 9.33788 17.18 9.16988 17.236C9.01122 17.2827 8.84322 17.334 8.66588 17.39C8.48855 17.4367 8.31122 17.4833 8.13388 17.53C7.96588 17.5767 7.81655 17.6187 7.68588 17.656L7.32188 16.368C7.49922 16.3027 7.70922 16.2233 7.95188 16.13C8.20388 16.0367 8.45588 15.934 8.70788 15.822C8.96922 15.71 9.22122 15.6027 9.46388 15.5C9.70655 15.388 9.91655 15.2853 10.0939 15.192H11.5919V24.488H13.7619V26H7.08388V24.488ZM18.1215 24.684C18.4855 24.684 18.8169 24.6327 19.1155 24.53C19.4142 24.4273 19.6709 24.2827 19.8855 24.096C20.1095 23.9 20.2775 23.6713 20.3895 23.41C20.5109 23.1393 20.5715 22.8407 20.5715 22.514C20.5715 22.1967 20.5155 21.9167 20.4035 21.674C20.2915 21.4313 20.1375 21.2307 19.9415 21.072C19.7455 20.904 19.5122 20.778 19.2415 20.694C18.9709 20.61 18.6769 20.568 18.3595 20.568C18.2009 20.568 18.0469 20.582 17.8975 20.61C17.7575 20.638 17.6222 20.6707 17.4915 20.708L16.7775 20.106L19.2275 16.69H15.9935V15.192H21.5795L22.0275 15.612L19.4235 19.28C19.8715 19.2987 20.2869 19.3967 20.6695 19.574C21.0615 19.742 21.3975 19.9707 21.6775 20.26C21.9575 20.5493 22.1769 20.8853 22.3355 21.268C22.4942 21.6507 22.5735 22.0613 22.5735 22.5C22.5735 23.0693 22.4662 23.5827 22.2515 24.04C22.0369 24.4973 21.7382 24.8893 21.3555 25.216C20.9729 25.5427 20.5062 25.7947 19.9555 25.972C19.4142 26.1493 18.8169 26.238 18.1635 26.238C17.9675 26.238 17.7435 26.224 17.4915 26.196C17.2489 26.168 16.9969 26.1307 16.7355 26.084C16.4835 26.0373 16.2362 25.9813 15.9935 25.916C15.7509 25.8507 15.5455 25.7807 15.3775 25.706L15.6435 24.292C16.0449 24.404 16.4602 24.4973 16.8895 24.572C17.3189 24.6467 17.7295 24.684 18.1215 24.684Z" fill="#FFBC00"/>
</svg>
